<?xml version="1.0" encoding="utf-8"?>
<!-- Generator: Adobe Illustrator 16.0.0, SVG Export Plug-In . SVG Version: 6.00 Build 0)  -->
<!DOCTYPE svg PUBLIC "-//W3C//DTD SVG 1.1//EN" "http://www.w3.org/Graphics/SVG/1.1/DTD/svg11.dtd">
<svg version="1.1" id="Calque_1" xmlns="http://www.w3.org/2000/svg" xmlns:xlink="http://www.w3.org/1999/xlink" x="0px" y="0px"
	 width="585px" height="214px" viewBox="0 0 585 214" enable-background="new 0 0 585 214" xml:space="preserve">
<g transform="translate(0.000000,214.000000) scale(0.100000,-0.100000)">
	<path d="M0,1090V40l127.998,2.002L255,44.004l-122.002,2.998L10,50.996V1090v1040h2910h2910V1090V50.996l-122.001-3.994
		L5585,44.004h125l125,0.996l2.998,1047.998L5839.999,2140H2920H0V1090z"/>
	<path d="M153.999,1927.002c-1.997-7.002-2.998-65-1.997-128.003L155,1685h125h125v125v125l-122.998,2.998
		C187.002,1940,157.998,1937.998,153.999,1927.002z M400,1810v-120H280H160v120v120h120h120V1810z"/>
	<path d="M633.999,1927.002c-1.997-7.002-2.998-65-1.997-128.003L635,1685h465h465v125v125l-462.998,2.002
		C732.002,1938.999,637.998,1937.002,633.999,1927.002z M870,1810v-120H755H640v120v120h115h115V1810z M1100,1810v-120H990H880v120
		v120h110h110V1810z M1330,1810v-120h-110h-110v120v120h110h110V1810z M1560,1810v-120h-110h-110v120v120h110h110V1810z"/>
	<path d="M1713.999,1927.002c-1.997-7.002-2.998-65-1.997-128.003L1715,1685h475h475v125v125l-472.998,2.002
		C1812.998,1938.999,1717.998,1937.002,1713.999,1927.002z M1950,1810v-120h-115h-115v120v120h115h115V1810z M2180,1810v-120h-110
		h-110v120v120h110h110V1810z M2420,1810v-120h-115h-115v120v120h115h115V1810z M2660,1810v-120h-115h-115v120v120h115h115V1810z"/>
	<path d="M2793.999,1927.002c-1.997-7.002-2.998-65-1.997-128.003L2795,1685h460h460v125v125l-457.998,2.002
		C2891,1938.999,2797.998,1937.002,2793.999,1927.002z M3020,1810v-120h-110h-110v120v120h110h110V1810z M3250,1810v-120h-110h-110
		v120v120h110h110V1810z M3480,1810v-120h-110h-110v120v120h110h110V1810z M3710,1810v-120h-110h-110v120v120h110h110V1810z"/>
	<path d="M3894.003,1927.002c-2.002-7.002-3.008-65-2.002-128.003L3895,1685h350h350v125v125l-347.998,2.002
		C3970,1938.999,3897.998,1937.002,3894.003,1927.002z M4120,1810v-120h-109.004h-110v120L3900,1930h110h110V1810z M4350,1810v-120
		h-110h-110v120v120h110h110V1810z M4590,1810v-120h-115h-115v120v120h115h115V1810z"/>
	<path d="M1937.002,1447.002c-1235.366,1.777-1681.396,0.391-1766.279-7.002H430v-230H160v228.73c-3.174-0.547-4.819-1.123-5-1.729
		c-2.998-7.002-3.999-286.001-2.002-622.002L155,205h3560v1240L1937.002,1447.002z M3040,1440h220v-230h-220V1440z M610,700v240h230
		V700H610z M730,690V450.996l-82.002-2.998c-45.996-2.002-97.998-2.002-115,0L500,450.996V690H730z M560,950v250h220V950H560z
		 M790,950v250h230V950H790z M740,690h230V452.002l-62.002-4.004c-35-0.996-86.997-2.002-115,0L740,450.996V690z M850,700v240h240
		V700H850z M1030,950v250h220V950H1030z M980,690h220V450H980V690z M1100,700v240h210V700H1100z M1260,950v250h230V950H1260z
		 M1210,690h230V450h-230V690z M1320,700v240h230V700H1320z M1500,950v250h230V950H1500z M1450,690h220V450h-220V690z M1560,700v240
		h230V700H1560z M1740,950v250h460V950H1740z M1680,690h220V450h-220V690z M1800,700v240h220V700H1800z M1910,690h230V450h-230V690z
		 M2030,700v240h230V700H2030z M2210,950v250h220l2.002-122.002L2433.999,955l3.003,122.998L2441,1200H2670V950H2210z M2150,690h220
		V450h-220V690z M2270,700v240h220V700H2270z M2380,690h230V450h-230V690z M2500,700v240h230V700H2500z M2680,950v250h220V950H2680z
		 M2620,690h230V450h-230V690z M2740,700v240h230V700H2740z M2910,950v250h220V950H2910z M2860,690h230V450.996l-110.996-2.998
		c-61.006-2.002-113.003-0.996-115.005,1.006c-1.997,1.992-3.999,57.998-3.999,122.998V690z M2980,700v240h220l2.002-117.002
		L3204.003,705l2.998,117.998L3210.996,940H3430V700H2980z M3370,950h-230v250h230V950z M2800,1440h230v-230h-230V1440z M2570,1440
		h220v-230h-220V1440z M2330,1440h230v-230h-230V1440z M2100,1440h220v-230h-220V1440z M1870,1440h220v-230h-220V1440z M1630,1440
		h230v-230h-230V1440z M1390,1440h230v-230h-230V1440z M1160,1440h220v-230h-220V1440z M920,1440h230v-230H920V1440z M690,1440h220
		v-230H690V1440z M440,1440h240v-230H440V1440z M160,1200h390V950H160V1200z M160,940h440V700H160V940z M160,690h330V450H160V690z
		 M560,210H160v230h400V210z M840,210H570v230h270V210z M1140,210H850v230h290V210z M2570,210H1150v230h1420V210z M2870,210h-290
		v230h290V210z M3150,210h-270v230h270V210z M3370,210h-210v230h210V210z M3710,210h-330v230h330V210z M3710,450.996l-277.002-2.998
		c-152.998-2.002-290-2.002-305,0L3100,450.996V690h610V450.996z M3710,700h-269.004l-2.998,122.998L3435,945l-27.002,2.998
		L3380,950.996V1200h330V700z M3710,1210h-440v230h440V1210z"/>
	<path d="M3895,1437.002c-2.998-6.001-4.004-120-2.998-252.002L3895,945h350h350v250v250l-347.998,2.002
		C3979.003,1448.999,3897.998,1447.002,3895,1437.002z M4120,1325v-115h-110h-110v115v115h110h110V1325z M4350,1325v-115h-110h-110
		v115v115h110h110V1325z M4590,1325v-115h-115h-115v115v115h115h115V1325z M4120,1075V950h-110h-110v125v125h110h110V1075z
		 M4350,1075V950h-110h-110v125v125h110h110V1075z M4590,1075V950h-115h-115v125v125h115h115V1075z"/>
	<path d="M4775,1437.002c-2.998-6.001-4.004-286.001-2.002-622.002L4775,205h455h455v620v620l-452.998,2.002
		C4882.001,1448.999,4777.998,1447.002,4775,1437.002z M4990,1325v-115h-105h-105v115v115h105h105V1325z M5220,1325v-115h-110h-110
		v115v115h110h110V1325z M5450,1325v-115h-110h-110v115v115h110h110V1325z M5680,1325v-115h-110h-110v115v115h110h110V1325z
		 M4990,1075V950h-105h-105v125v125h105h105V1075z M5220,1075V950h-110h-110v125v125h110h110V1075z M5450,1075V950h-110h-110v125
		v125h110h110V1075z M5680,950V700h-110h-110v250v250h110h110V950z M4990,820V700h-105h-105v120v120h105h105V820z M5220,820V700
		h-110h-110v120v120h110h110V820z M5450,820V700h-110h-110v120v120h110h110V820z M4990,570V450h-105h-105v120v120h105h105V570z
		 M5220,570V450h-110h-110v120v120h110h110V570z M5450,570V450l-220-0.996v120V690h110h110V570z M5680,450V210h-110h-110v240v240
		h110h110V450z M5220,325V210h-220h-220v115v115h220h220V325z M5450,325V210h-110h-110v115v115h110h110V325z"/>
	<path d="M4127.001,694.004c-4.004-4.004-7.002-60-7.002-125V450.996l-112.002-2.998L3895,445V325V205h350h350v120v120
		l-117.002,2.998l-117.002,2.998l-2.998,122.002L4355,695l-110.996,2.998C4184.003,699.004,4130.996,697.002,4127.001,694.004z
		 M4350,570V450h-110h-110v120v120h110h110V570z M4120,325V210h-110h-110v115v115h110h110V325z M4350,325V210h-110h-110v115v115h110
		h110V325z M4590,325V210h-115h-115v115v115h115h115V325z"/>
	<path d="M2317.998,12.998c338.003-2.002,887.002-2.002,1220,0C3872.001,14.004,3595.996,15,2925,15
		C2253.999,15,1981.001,14.004,2317.998,12.998z"/>
</g>
<text transform="matrix(0.8537 0 0 1 27.6665 78.7021)"><tspan x="0" y="0" font-family="'MyriadPro-Regular'" font-size="10.251">3</tspan><tspan x="0" y="12.301" font-family="'MyriadPro-Regular'" font-size="10.251">2</tspan></text>
<text transform="matrix(1.2835 0 0 1 20.6646 128.8984)"><tspan x="0" y="0" font-family="'MyriadPro-Regular'" font-size="9.8864">Shift</tspan><tspan x="0" y="11.863" font-family="'MyriadPro-Regular'" font-size="9.8864">Lock</tspan></text>
<text transform="matrix(1.1383 0 0 1 21 184.2705)" font-family="'MyriadPro-Regular'" font-size="12.92">Ctrl</text>
<text transform="matrix(1 0 0 1 91.6665 184.2705)" font-family="'MyriadPro-Regular'" font-size="12">Alt</text>
<text transform="matrix(1 0 0 1 259.3335 185.5)" font-family="'MyriadPro-Regular'" font-size="12">AltGr</text>
<text transform="matrix(1 0 0 1 317.333 184.9365)" font-family="'MyriadPro-Regular'" font-size="12">Ctrl</text>
<text transform="matrix(1.1839 0 0 1 51 78.3857)"><tspan x="0" y="0" font-family="'MyriadPro-Regular'" font-size="10.4696">1</tspan><tspan x="0" y="12.563" font-family="'MyriadPro-Regular'" font-size="10.4696">&amp; |</tspan></text>
<text transform="matrix(0.9121 0 0 1 73 78.5386)"><tspan x="0" y="0" font-family="'MyriadPro-Regular'" font-size="11.4557">2</tspan><tspan x="0" y="13.747" font-family="'MyriadPro-Regular'" font-size="11.4557">é @</tspan></text>
<text transform="matrix(1.0154 0 0 1 98.25 77.8774)"><tspan x="0" y="0" font-family="'MyriadPro-Regular'" font-size="10.3603">3</tspan><tspan x="0" y="12.432" font-family="'MyriadPro-Regular'" font-size="10.3603">« #</tspan></text>
<text transform="matrix(1.1706 0 0 1 124 78.5356)"><tspan x="0" y="0" font-family="'MyriadPro-Regular'" font-size="10.251">4</tspan><tspan x="0" y="12.301" font-family="'MyriadPro-Regular'" font-size="10.251">‘</tspan></text>
<text transform="matrix(1.1227 0 0 1 148.5 78.4014)"><tspan x="0" y="0" font-family="'MyriadPro-Regular'" font-size="10.6882">5</tspan><tspan x="0" y="12.826" font-family="'MyriadPro-Regular'" font-size="10.6882">(</tspan></text>
<text transform="matrix(1.0471 0 0 1 169.251 78.5986)"><tspan x="0" y="0" font-family="'MyriadPro-Regular'" font-size="10.381">6</tspan><tspan x="0" y="12.457" font-family="'MyriadPro-Regular'" font-size="10.381">§ ^</tspan></text>
<text transform="matrix(1.1462 0 0 1 195 78.2188)"><tspan x="0" y="0" font-family="'MyriadPro-Regular'" font-size="10.4696">7</tspan><tspan x="0" y="12.563" font-family="'MyriadPro-Regular'" font-size="10.4696">è</tspan></text>
<text transform="matrix(1.1334 0 0 1 217.25 78.5479)"><tspan x="0" y="0" font-family="'MyriadPro-Regular'" font-size="10.5875">8</tspan><tspan x="0" y="12.705" font-family="'MyriadPro-Regular'" font-size="10.5875">!</tspan></text>
<text transform="matrix(1.2475 0 0 1 240.249 78.2183)"><tspan x="0" y="0" font-family="'MyriadPro-Regular'" font-size="10.4696">9</tspan><tspan x="0" y="12.563" font-family="'MyriadPro-Regular'" font-size="10.4696">ç {</tspan></text>
<text transform="matrix(1.1207 0 0 1 264.7495 78.5361)"><tspan x="0" y="0" font-family="'MyriadPro-Regular'" font-size="10.251">0</tspan><tspan x="0" y="12.301" font-family="'MyriadPro-Regular'" font-size="10.251">à }</tspan></text>
<text transform="matrix(1.1324 0 0 1 291.0313 78.0234)"><tspan x="0" y="0" font-family="'MyriadPro-Regular'" font-size="10.4319">°</tspan><tspan x="0" y="12.519" font-family="'MyriadPro-Regular'" font-size="10.4319">)</tspan></text>
<text transform="matrix(1.0074 0 0 1 313.25 77.9863)"><tspan x="0" y="0" font-family="'MyriadPro-Regular'" font-size="9.5951">-</tspan><tspan x="0" y="11.514" font-family="'MyriadPro-Regular'" font-size="9.5951">_</tspan></text>
<text transform="matrix(1 0 0 1 64 108.5)" font-family="'MyriadPro-Regular'" font-size="12">A</text>
<text transform="matrix(1 0 0 1 86.9165 109.25)" font-family="'MyriadPro-Regular'" font-size="12">Z</text>
<text transform="matrix(1.4245 0 0 1 110.0791 109.5137)" font-family="'MyriadPro-Regular'" font-size="12.3249">E</text>
<text transform="matrix(0.9905 0 0 1 119.5005 117.9629)" font-family="'MyriadPro-Regular'" font-size="10.1475">€</text>
<text transform="matrix(1 0 0 1 136.5 110.5)" font-family="'MyriadPro-Regular'" font-size="12">R</text>
<text transform="matrix(1 0 0 1 159.5 110.25)" font-family="'MyriadPro-Regular'" font-size="12">T</text>
<text transform="matrix(1 0 0 1 181 110)" font-family="'MyriadPro-Regular'" font-size="12">Y</text>
<text transform="matrix(1 0 0 1 203 110)" font-family="'MyriadPro-Regular'" font-size="12">U</text>
<text transform="matrix(1 0 0 1 226.9995 109.334)" font-family="'MyriadPro-Regular'" font-size="12">I</text>
<text transform="matrix(1 0 0 1 249.8277 110.25)" font-family="'MyriadPro-Regular'" font-size="12">O</text>
<text transform="matrix(1 0 0 1 273.333 109.833)" font-family="'MyriadPro-Regular'" font-size="12">P</text>
<text transform="matrix(1.1773 0 0 1 293.998 103.9053)"><tspan x="0" y="0" font-family="'MyriadPro-Regular'" font-size="11.4897">¨</tspan><tspan x="0" y="13.788" font-family="'MyriadPro-Regular'" font-size="11.4897">^ [</tspan></text>
<rect x="196.167" y="94" width="1.417" height="25"/>
<text transform="matrix(1.4736 0 0 1 318.002 103.1934)"><tspan x="0" y="0" font-family="'MyriadPro-Regular'" font-size="10.8339">*</tspan><tspan x="0" y="13.001" font-family="'MyriadPro-Regular'" font-size="10.8339">$ ]</tspan></text>
<text transform="matrix(1 0 0 1 68.5 134.8652)" font-family="'MyriadPro-Regular'" font-size="12">Q</text>
<text transform="matrix(1 0 0 1 95.25 134.8652)" font-family="'MyriadPro-Regular'" font-size="12">S</text>
<text transform="matrix(1 0 0 1 117 134.8652)" font-family="'MyriadPro-Regular'" font-size="12">D</text>
<text transform="matrix(1 0 0 1 141 135.0957)" font-family="'MyriadPro-Regular'" font-size="12">F</text>
<text transform="matrix(1 0 0 1 163.25 135)" font-family="'MyriadPro-Regular'" font-size="12">G</text>
<text transform="matrix(1 0 0 1 187 135.75)" font-family="'MyriadPro-Regular'" font-size="12">H</text>
<text transform="matrix(1 0 0 1 212.25 135.25)" font-family="'MyriadPro-Regular'" font-size="12">J</text>
<text transform="matrix(1 0 0 1 236.25 136.1152)" font-family="'MyriadPro-Regular'" font-size="12">K</text>
<text transform="matrix(1 0 0 1 259.5 135.5)" font-family="'MyriadPro-Regular'" font-size="12">L</text>
<text transform="matrix(1 0 0 1 281 135.5)" font-family="'MyriadPro-Regular'" font-size="12">M</text>
<text transform="matrix(1.2718 0 0 1 302.75 128.7432)"><tspan x="0" y="0" font-family="'MyriadPro-Regular'" font-size="10.3603">%</tspan><tspan x="0" y="12.433" font-family="'MyriadPro-Regular'" font-size="10.3603">ù ´ </tspan></text>
<text transform="matrix(1.079 0 0 1 325.25 129.2861)"><tspan x="0" y="0" font-family="'MyriadPro-Regular'" font-size="10.251">£</tspan><tspan x="0" y="12.301" font-family="'MyriadPro-Regular'" font-size="10.251">µ `</tspan></text>
<text transform="matrix(1.1002 0 0 1 56.251 153.585)"><tspan x="0" y="0" font-family="'MyriadPro-Regular'" font-size="10.9069">&gt;</tspan><tspan x="0" y="13.088" font-family="'MyriadPro-Regular'" font-size="10.9069">&lt; \</tspan></text>
<text transform="matrix(1 0 0 1 81.25 159.5)" font-family="'MyriadPro-Regular'" font-size="12">W</text>
<text transform="matrix(1 0 0 1 106.0791 159.5)" font-family="'MyriadPro-Regular'" font-size="12">X</text>
<text transform="matrix(1 0 0 1 129.75 160.5)" font-family="'MyriadPro-Regular'" font-size="12">C</text>
<text transform="matrix(1 0 0 1 155 161)" font-family="'MyriadPro-Regular'" font-size="12">V</text>
<text transform="matrix(1 0 0 1 177.5 160.25)" font-family="'MyriadPro-Regular'" font-size="12">B</text>
<text transform="matrix(1 0 0 1 199 160.25)" font-family="'MyriadPro-Regular'" font-size="12">N</text>
<text transform="matrix(1.3825 0 0 1 225.001 153.085)"><tspan x="0" y="0" font-family="'MyriadPro-Regular'" font-size="10.9069">?</tspan><tspan x="0" y="13.088" font-family="'MyriadPro-Regular'" font-size="10.9069">,</tspan></text>
<text transform="matrix(1.665 0 0 1 249.0811 153.6279)"><tspan x="0" y="0" font-family="'MyriadPro-Regular'" font-size="10.3603">.</tspan><tspan x="0" y="12.433" font-family="'MyriadPro-Regular'" font-size="10.3603">;</tspan></text>
<text transform="matrix(1.2838 0 0 1 274.25 154.2178)"><tspan x="0" y="0" font-family="'MyriadPro-Regular'" font-size="10.4696">/</tspan><tspan x="0" y="12.563" font-family="'MyriadPro-Regular'" font-size="10.4696">:</tspan></text>
<text transform="matrix(1.1282 0 0 1 289.4248 153.4209)"><tspan x="0" y="0" font-family="'MyriadPro-Regular'" font-size="9.8138">+</tspan><tspan x="0" y="11.776" font-family="'MyriadPro-Regular'" font-size="9.8138">=  ~</tspan></text>
<text transform="matrix(1 0 0 1 19.833 36.8159)" font-family="'MyriadPro-Regular'" font-size="12">Esc</text>
<text transform="matrix(1 0 0 1 69.8335 36.501)" font-family="'MyriadPro-Regular'" font-size="12">F1</text>
<text transform="matrix(1 0 0 1 94.167 36.0005)" font-family="'MyriadPro-Regular'" font-size="12">F2</text>
<text transform="matrix(1 0 0 1 117.833 36.001)" font-family="'MyriadPro-Regular'" font-size="12">F3</text>
<text transform="matrix(1 0 0 1 139.6665 36.501)" font-family="'MyriadPro-Regular'" font-size="12">F4</text>
<text transform="matrix(1 0 0 1 177.333 36.1675)" font-family="'MyriadPro-Regular'" font-size="12">F5</text>
<text transform="matrix(1 0 0 1 202.167 36.3345)" font-family="'MyriadPro-Regular'" font-size="12">F6</text>
<text transform="matrix(1 0 0 1 226.5005 36.667)" font-family="'MyriadPro-Regular'" font-size="12">F7</text>
<text transform="matrix(1 0 0 1 249 36.6982)" font-family="'MyriadPro-Regular'" font-size="12">F8</text>
<text transform="matrix(1 0 0 1 287.0005 36.1675)" font-family="'MyriadPro-Regular'" font-size="12">F9</text>
<text transform="matrix(1 0 0 1 306.417 36.1675)" font-family="'MyriadPro-Regular'" font-size="12">F10</text>
<text transform="matrix(1 0 0 1 329.834 36.501)" font-family="'MyriadPro-Regular'" font-size="12">F11</text>
<text transform="matrix(1 0 0 1 351.166 36.5005)" font-family="'MyriadPro-Regular'" font-size="12">F12</text>
<text transform="matrix(1.1652 0 0 1 390.0098 27.5234)"><tspan x="0" y="0" font-family="'MyriadPro-Regular'" font-size="6.6452">Print</tspan><tspan x="0" y="7.974" font-family="'MyriadPro-Regular'" font-size="6.6452">Screen</tspan><tspan x="0" y="15.949" font-family="'MyriadPro-Regular'" font-size="6.6452">SysRq</tspan></text>
<text transform="matrix(1.027 0 0 1 414.501 31.312)"><tspan x="0" y="0" font-family="'MyriadPro-Regular'" font-size="7.9919">Scroll</tspan><tspan x="0" y="9.59" font-family="'MyriadPro-Regular'" font-size="7.9919">Lock</tspan></text>
<text transform="matrix(1.0282 0 0 1 437.001 31.3291)"><tspan x="0" y="0" font-family="'MyriadPro-Regular'" font-size="8.2105">Pause</tspan><tspan x="0" y="9.853" font-family="'MyriadPro-Regular'" font-size="8.2105">Break</tspan></text>
<text transform="matrix(1.0262 0 0 1 390.1689 83.1763)" font-family="'MyriadPro-Regular'" font-size="8.6265">Insert</text>
<text transform="matrix(1.0628 0 0 1 413.502 83.3291)" font-family="'MyriadPro-Regular'" font-size="8.0133">Home</text>
<text transform="matrix(1.0494 0 0 1 437.667 79.0869)"><tspan x="0" y="0" font-family="'MyriadPro-Regular'" font-size="8.7208">Page</tspan><tspan x="0" y="10.465" font-family="'MyriadPro-Regular'" font-size="8.7208">Up</tspan></text>
<text transform="matrix(0.9638 0 0 1 391.001 108.2402)" font-family="'MyriadPro-Regular'" font-size="7.707">Delete</text>
<text transform="matrix(0.9969 0 0 1 417.167 108.7793)" font-family="'MyriadPro-Regular'" font-size="9.5468">End</text>
<text transform="matrix(1.0891 0 0 1 438.168 104.0464)"><tspan x="0" y="0" font-family="'MyriadPro-Regular'" font-size="7.044">Page</tspan><tspan x="0" y="8.453" font-family="'MyriadPro-Regular'" font-size="7.044">Down</tspan></text>
<text transform="matrix(1.0268 0 0 1 479.332 78.7437)"><tspan x="0" y="0" font-family="'MyriadPro-Regular'" font-size="9.3034">Num</tspan><tspan x="0" y="11.164" font-family="'MyriadPro-Regular'" font-size="9.3034">Lock</tspan></text>
<text transform="matrix(1 0 0 1 509.667 84.8428)" font-family="'MyriadPro-Regular'" font-size="12">/</text>
<text transform="matrix(1 0 0 1 532.001 86.5)" font-family="'MyriadPro-Regular'" font-size="12">*</text>
<text transform="matrix(1 0 0 1 555 85.5)" font-family="'MyriadPro-Regular'" font-size="12">-</text>
<text transform="matrix(1 0 0 1 553.334 110.667)" font-family="'MyriadPro-Regular'" font-size="12">+</text>
<text transform="matrix(1.1041 0 0 1 546.668 155.4248)" font-family="'MyriadPro-Regular'" font-size="8.3938">Enter</text>
<text transform="matrix(0.7752 0 0 1 479.999 105.0405)"><tspan x="0" y="0" font-family="'MyriadPro-Regular'" font-size="8.8671">7</tspan><tspan x="0" y="10.64" font-family="'MyriadPro-Regular'" font-size="8.8671">Home</tspan></text>
<text transform="matrix(1 0 0 1 508.334 105.1655)" font-family="'MyriadPro-Regular'" font-size="12">8</text>
<text transform="matrix(0.8237 0 0 1 526.001 104.126)"><tspan x="0" y="0" font-family="'MyriadPro-Regular'" font-size="9.9594">9</tspan><tspan x="0" y="11.951" font-family="'MyriadPro-Regular'" font-size="9.9594">PgUp</tspan></text>
<text transform="matrix(1 0 0 1 483.333 132.498)" font-family="'MyriadPro-Regular'" font-size="12">4</text>
<text transform="matrix(1 0 0 1 507.667 131.832)" font-family="'MyriadPro-Regular'" font-size="12">5</text>
<text transform="matrix(1 0 0 1 530.999 131.498)" font-family="'MyriadPro-Regular'" font-size="12">6</text>
<text transform="matrix(1 0 0 1 481.335 154.2178)"><tspan x="0" y="0" font-family="'MyriadPro-Regular'" font-size="8.2756">1</tspan><tspan x="0" y="9.931" font-family="'MyriadPro-Regular'" font-size="8.2756">End</tspan></text>
<text transform="matrix(1 0 0 1 504.334 155.9619)" font-family="'MyriadPro-Regular'" font-size="12">2</text>
<text transform="matrix(0.8975 0 0 1 527 154.9063)"><tspan x="0" y="0" font-family="'MyriadPro-Regular'" font-size="8.5012">3</tspan><tspan x="0" y="10.201" font-family="'MyriadPro-Regular'" font-size="8.5012">PgDn</tspan></text>
<text transform="matrix(1.034 0 0 1 529 178.2861)"><tspan x="0" y="0" font-family="'MyriadPro-Regular'" font-size="9.0849">.</tspan><tspan x="0" y="10.901" font-family="'MyriadPro-Regular'" font-size="9.0849">Del</tspan></text>
<text transform="matrix(1.0619 0 0 1 493.001 179.834)"><tspan x="0" y="0" font-family="'MyriadPro-Regular'" font-size="9.4692">0</tspan><tspan x="0" y="11.363" font-family="'MyriadPro-Regular'" font-size="9.4692">Ins</tspan></text>
<polyline points="449.75,175.583 449.75,179.834 439.667,179.834 439.667,182.167 449.75,182.5 449.75,184.937 454.417,181.083 "/>
<polyline points="421.563,164.188 421.563,154 418.688,153.628 424.188,148.563 428,153.628 424.875,153.628 424.5,164.188 "/>
<polyline points="425.813,176 422.625,176 422.625,183.375 418.688,183.375 424.5,189.563 429.25,183.438 425.563,183.438 "/>
<polyline points="406.583,179.834 398.75,179.834 398.75,176 394.417,182.167 399,184.937 398.917,182.781 406.583,182.781 "/>
<polyline points="359.375,78.744 341.375,78.536 341.375,72 332.625,82.125 341.25,87.75 341,84.843 359.375,84.843 "/>
<polyline points="360.625,98 360.625,111.25 350.25,111.25 350.25,107 344,114.875 351.166,122.375 350.5,117.963 364.375,117.963 
	363.125,98 "/>
<polyline points="46.5,100.75 30.667,100.75 30.667,97 24.5,103.193 30.667,107 30.667,104.126 46.5,104.126 "/>
<polyline points="23,97 20.665,97 20.665,107 23,107 "/>
<polyline points="22.581,114.526 38.411,114.214 38.485,117.963 44.528,111.648 38.288,107.965 38.344,110.838 22.514,111.151 "/>
<polyline points="46.15,117.812 48.485,117.766 48.288,107.768 45.953,107.813 "/>
<polygon fill="none" stroke="#000000" stroke-miterlimit="10" points="26.75,165.5 38.25,165.5 38.25,162.625 43.5,162.625 
	32.75,150.125 21,162 26.75,162.125 "/>
<polygon fill="none" stroke="#000000" stroke-miterlimit="10" points="319.75,163.112 331.25,163.112 331.25,160.237 336.5,160.237 
	325.75,147.737 314,159.612 319.75,159.737 "/>
<path d="M309.5,176.625c0-1.25-6.75,0.375-6.75-1.375s-0.625,5.625-0.625,5.625s6,1.625,6.25,0S309.5,176.625,309.5,176.625z"/>
<path d="M308.375,182.687c0-1.25-6.75,0.375-6.75-1.375S301,186.937,301,186.937s6,1.625,6.25,0S308.375,182.687,308.375,182.687z"
	/>
<path d="M302.563,175.539c0-1.25-6.75,0.375-6.75-1.375s-0.625,5.625-0.625,5.625s6,1.625,6.25,0S302.563,175.539,302.563,175.539z"
	/>
<path d="M301.438,181.812c0-1.25-6.75,0.375-6.75-1.375s-0.625,5.625-0.625,5.625s6,1.625,6.25,0S301.438,181.812,301.438,181.812z"
	/>
<path d="M78.313,176.786c0-1.25-6.75,0.375-6.75-1.375s-0.625,5.625-0.625,5.625s6,1.625,6.25,0S78.313,176.786,78.313,176.786z"/>
<path d="M77.188,182.848c0-1.25-6.75,0.375-6.75-1.375s-0.625,5.625-0.625,5.625s6,1.625,6.25,0S77.188,182.848,77.188,182.848z"/>
<path d="M71.375,175.7c0-1.25-6.75,0.375-6.75-1.375S64,179.95,64,179.95s6,1.625,6.25,0S71.375,175.7,71.375,175.7z"/>
<path d="M70.25,181.973c0-1.25-6.75,0.375-6.75-1.375s-0.625,5.625-0.625,5.625s6,1.625,6.25,0S70.25,181.973,70.25,181.973z"/>
<path d="M345.5,173.5h14.375l0.875,17.25L347.5,190C347.5,190,346.75,173.625,345.5,173.5z"/>
<polygon fill="#FFFFFF" points="349.163,184.285 359.021,183.612 358.824,182.125 348.95,182.674 "/>
<polygon fill="#FFFFFF" points="349.163,180.22 357.3,179.773 357.104,178.286 348.95,178.609 "/>
<polygon fill="#FFFFFF" points="349.063,175.88 357.188,176.25 357.188,175.36 349.063,174.916 "/>
<polygon fill="#FFFFFF" points="349.726,187.849 359.583,187.176 359.387,185.688 349.513,186.237 "/>
</svg>
