<?xml version="1.0" encoding="utf-8"?>
<!-- Generator: Adobe Illustrator 16.0.0, SVG Export Plug-In . SVG Version: 6.00 Build 0)  -->
<!DOCTYPE svg PUBLIC "-//W3C//DTD SVG 1.1//EN" "http://www.w3.org/Graphics/SVG/1.1/DTD/svg11.dtd">
<svg version="1.1" id="Calque_1" xmlns="http://www.w3.org/2000/svg" xmlns:xlink="http://www.w3.org/1999/xlink" x="0px" y="0px"
	 width="833.999px" height="291.171px" viewBox="36.501 195.5 833.999 291.171"
	 enable-background="new 36.501 195.5 833.999 291.171" xml:space="preserve">
<g id="Calque_4">
	<path d="M424.347,342.094c-154.985,5.563-210.935,7.794-221.553,9.001l32.526-1.209l0.938,25.236l-33.872,1.258l-0.933-25.096
		c-0.396,0.075-0.6,0.146-0.621,0.212c-0.347,0.783,0.665,31.399,2.285,68.257l2.738,66.918l446.607-16.595l-5.055-136.051
		L424.347,342.094z M562.748,337.72l27.6-1.024l0.938,25.233l-27.601,1.025L562.748,337.72z M260.92,430.241l-0.979-26.334
		l28.854-1.071l0.979,26.333L260.92,430.241z M276.014,430.777l0.975,26.226l-10.275,0.71c-5.762,0.434-12.286,0.676-14.427,0.536
		l-4.152-0.175l-0.975-26.226L276.014,430.777z M253.627,403.043l-1.02-27.43l27.6-1.025l1.02,27.43L253.627,403.043z
		 M282.481,401.971l-1.02-27.429l28.854-1.072l1.019,27.43L282.481,401.971z M277.269,430.73l28.854-1.071l0.97,26.113l-7.762,0.729
		c-4.386,0.271-10.906,0.624-14.427,0.536l-6.66-0.081L277.269,430.73z M291.028,429.122l-0.979-26.333l30.107-1.119l0.979,26.334
		L291.028,429.122z M312.589,400.852l-1.019-27.429l27.599-1.026l1.02,27.431L312.589,400.852z M307.377,429.612l27.6-1.025
		l0.979,26.333l-27.6,1.025L307.377,429.612z M322.391,427.957l-0.978-26.334l26.344-0.979l0.979,26.334L322.391,427.957z
		 M341.444,399.78l-1.019-27.431l28.854-1.072l1.019,27.431L341.444,399.78z M336.23,428.54l28.854-1.072l0.979,26.334
		l-28.854,1.072L336.23,428.54z M349.989,426.931l-0.979-26.332l28.854-1.072l0.978,26.333L349.989,426.931z M371.552,398.661
		l-1.019-27.43l28.854-1.072l1.019,27.429L371.552,398.661z M366.339,427.421l27.599-1.023l0.979,26.331l-27.599,1.026
		L366.339,427.421z M380.098,425.813l-0.979-26.334l28.854-1.071l0.979,26.334L380.098,425.813z M401.66,397.543l-1.02-27.431
		l57.707-2.145l1.021,27.429L401.66,397.543z M395.192,426.35l27.6-1.025l0.979,26.333l-27.6,1.024L395.192,426.35z
		 M410.206,424.693l-0.979-26.333l27.6-1.025l0.979,26.333L410.206,424.693z M424.046,425.276l28.854-1.072l0.979,26.334
		l-28.854,1.072L424.046,425.276z M439.06,423.621l-0.979-26.333l28.852-1.072l0.979,26.334L439.06,423.621z M460.623,395.351
		l-1.021-27.429l27.6-1.024l0.748,13.376l0.752,13.486l-0.124-13.51l0.003-13.405l28.729-1.066l1.02,27.43L460.623,395.351z
		 M454.155,424.157l27.599-1.024l0.979,26.333l-27.6,1.025L454.155,424.157z M469.168,422.503l-0.979-26.334l27.601-1.025
		l0.979,26.335L469.168,422.503z M483.008,423.086l28.855-1.072l0.979,26.333l-28.854,1.072L483.008,423.086z M498.021,421.431
		l-0.979-26.333l28.854-1.071l0.979,26.333L498.021,421.431z M519.584,393.16l-1.021-27.429l27.601-1.025l1.019,27.429
		L519.584,393.16z M513.116,421.967l28.854-1.07l0.979,26.332l-28.854,1.072L513.116,421.967z M528.131,420.313l-0.979-26.334
		l28.854-1.071l0.979,26.333L528.131,420.313z M548.438,392.088l-1.021-27.429l27.6-1.026l1.021,27.43L548.438,392.088z
		 M543.226,420.849l28.854-1.071l0.975,26.225l-13.913,0.846c-7.646,0.503-14.173,0.635-14.432,0.426
		c-0.26-0.207-0.738-6.346-1.003-13.478L543.226,420.849z M558.239,419.193l-0.979-26.334l27.6-1.025l0.728,12.827l0.733,12.938
		l-0.104-12.962l0.022-12.854l27.475-1.021l0.979,26.333L558.239,419.193z M606.146,389.943l-28.854,1.072l-1.02-27.431
		l28.854-1.072L606.146,389.943z M532.641,338.838l28.854-1.071l0.938,25.234l-28.854,1.072L532.641,338.838z M503.787,339.91
		l27.598-1.025l0.938,25.235l-27.599,1.026L503.787,339.91z M473.678,341.029l28.854-1.072l0.938,25.236l-28.854,1.07
		L473.678,341.029z M444.825,342.101l27.598-1.024l0.938,25.236l-27.601,1.024L444.825,342.101z M415.97,343.173l27.6-1.024
		l0.938,25.235l-27.6,1.025L415.97,343.173z M385.863,344.293l28.853-1.073l0.938,25.235l-28.854,1.072L385.863,344.293z
		 M355.754,345.411l28.854-1.072l0.938,25.235l-28.854,1.072L355.754,345.411z M326.901,346.483l27.599-1.025l0.938,25.235
		l-27.598,1.023L326.901,346.483z M296.792,347.602l28.854-1.07l0.938,25.233l-28.854,1.072L296.792,347.602z M267.938,348.674
		l27.599-1.024l0.938,25.234l-27.6,1.026L267.938,348.674z M236.576,349.839l30.108-1.118l0.938,25.235l-30.108,1.119
		L236.576,349.839z M202.428,377.479l48.926-1.817l1.02,27.429l-48.926,1.818L202.428,377.479z M203.488,406.005l55.199-2.051
		l0.979,26.334l-55.199,2.051L203.488,406.005z M204.507,433.435l41.399-1.537l0.979,26.333l-41.399,1.537L204.507,433.435z
		 M256.644,484.236l-50.18,1.864l-0.938-25.236l50.18-1.865L256.644,484.236z M291.771,482.932l-33.873,1.259l-0.938-25.236
		l33.873-1.259L291.771,482.932z M329.406,481.533l-36.38,1.352l-0.938-25.236l36.38-1.353L329.406,481.533z M508.801,474.866
		l-178.14,6.62l-0.938-25.237l178.141-6.619L508.801,474.866z M546.436,473.469l-36.379,1.352l-0.938-25.236l36.379-1.353
		L546.436,473.469z M581.563,472.163l-33.872,1.259l-0.938-25.238l33.873-1.259L581.563,472.163z M609.162,471.138l-26.346,0.979
		l-0.938-25.237l26.346-0.979L609.162,471.138z M651.814,469.553l-41.397,1.538l-0.938-25.237l41.396-1.537L651.814,469.553z
		 M650.832,443.111l-34.736,1.619c-19.188,0.931-36.373,1.568-38.264,1.422l-3.524-0.197l-0.975-26.227l76.524-2.843
		L650.832,443.111z M649.817,415.79l-33.747,1.254l-0.878-13.483l-0.872-13.371l-3.401-0.202l-3.523-0.198l-1.015-27.32
		l41.398-1.538L649.817,415.79z M647.737,359.832l-55.197,2.051l-0.938-25.234l55.197-2.053L647.737,359.832z"/>
	<g enable-background="new    ">
		<path d="M217.122,358.985c0.281,0.171,0.929,0.427,1.598,0.401c1.241-0.046,1.595-0.87,1.562-1.478
			c-0.049-1.023-0.966-1.431-1.898-1.396l-0.539,0.021l-0.028-0.742l0.539-0.02c0.703-0.026,1.578-0.432,1.545-1.298
			c-0.021-0.586-0.403-1.089-1.292-1.056c-0.571,0.021-1.11,0.299-1.409,0.535l-0.28-0.71c0.364-0.296,1.077-0.604,1.846-0.632
			c1.405-0.054,2.073,0.778,2.106,1.668c0.028,0.754-0.387,1.412-1.253,1.771l0.001,0.023c0.885,0.146,1.624,0.796,1.662,1.818
			c0.043,1.173-0.808,2.229-2.521,2.292c-0.801,0.029-1.514-0.202-1.874-0.428L217.122,358.985z"/>
	</g>
	<g enable-background="new    ">
		<path d="M217.436,373.628l-0.023-0.606l0.729-0.782c1.756-1.846,2.544-2.822,2.515-3.925c-0.028-0.742-0.405-1.416-1.47-1.377
			c-0.647,0.023-1.173,0.383-1.492,0.676l-0.333-0.688c0.478-0.446,1.168-0.786,1.993-0.816c1.537-0.058,2.225,0.999,2.263,2.045
			c0.05,1.351-0.864,2.479-2.313,4.02l-0.551,0.562l0.001,0.021l3.206-0.119l0.031,0.821L217.436,373.628z"/>
	</g>
	<g enable-background="new    ">
		<path d="M210.679,414.363c0.631,0.236,1.546,0.42,2.501,0.385c1.417-0.053,2.226-0.593,2.199-1.33
			c-0.025-0.683-0.613-1.052-2.076-1.378c-1.767-0.356-2.872-0.936-2.911-1.965c-0.042-1.138,1.312-2.036,3.397-2.113
			c1.098-0.041,1.901,0.104,2.385,0.271l-0.354,0.781c-0.355-0.115-1.08-0.306-2.05-0.27c-1.464,0.054-2,0.671-1.981,1.17
			c0.025,0.683,0.691,0.994,2.186,1.329c1.832,0.41,2.777,0.972,2.817,2.045c0.042,1.128-1.147,2.149-3.679,2.243
			c-1.035,0.039-2.173-0.125-2.756-0.365L210.679,414.363z"/>
		<path d="M218.428,407.518l1.401-0.052l0.122,3.274l0.032-0.002c0.213-0.278,0.554-0.53,0.978-0.708
			c0.408-0.179,0.897-0.306,1.422-0.324c1.035-0.039,2.707,0.332,2.774,2.143l0.116,3.123l-1.401,0.054l-0.112-3.015
			c-0.031-0.846-0.519-1.545-1.841-1.495c-0.907,0.033-1.608,0.493-1.843,1.023c-0.075,0.133-0.085,0.273-0.078,0.459l0.118,3.166
			l-1.401,0.052L218.428,407.518z"/>
		<path d="M228.858,408.107c0.028,0.323-0.312,0.598-0.869,0.617c-0.494,0.02-0.854-0.229-0.866-0.553
			c-0.012-0.336,0.344-0.609,0.854-0.63C228.502,407.523,228.846,407.771,228.858,408.107z M227.549,414.888l-0.195-5.247
			l1.401-0.052l0.195,5.247L227.549,414.888z"/>
		<path d="M231.416,414.744l-0.168-4.521l-1.082,0.04l-0.027-0.726l1.082-0.04l-0.009-0.249c-0.027-0.738,0.187-1.419,0.824-1.866
			c0.513-0.366,1.208-0.534,1.86-0.559c0.494-0.019,0.926,0.042,1.2,0.107l-0.164,0.744c-0.21-0.058-0.498-0.101-0.896-0.086
			c-1.193,0.044-1.469,0.771-1.439,1.573l0.01,0.282l1.863-0.069l0.027,0.726l-1.863,0.069l0.168,4.521L231.416,414.744z"/>
		<path d="M237.533,407.753l0.056,1.507l2.006-0.074l0.026,0.727l-2.005,0.074l0.105,2.83c0.024,0.65,0.309,1.009,1.089,0.979
			c0.365-0.014,0.636-0.056,0.81-0.094l0.09,0.713c-0.268,0.086-0.695,0.156-1.237,0.176c-0.652,0.024-1.183-0.097-1.527-0.345
			c-0.408-0.269-0.568-0.729-0.592-1.347l-0.106-2.862l-1.194,0.045l-0.027-0.726l1.194-0.046l-0.046-1.258L237.533,407.753z"/>
	</g>
	<g enable-background="new    ">
		<path d="M211.125,421.215l1.385-0.052l0.242,6.516l4.585-0.17l0.029,0.792l-5.97,0.223L211.125,421.215z"/>
		<path d="M225.513,425.327c0.072,1.939-1.87,2.858-3.732,2.929c-2.086,0.077-3.732-0.904-3.793-2.563
			c-0.065-1.758,1.583-2.85,3.717-2.929C223.917,422.684,225.454,423.723,225.513,425.327z M219.402,425.609
			c0.043,1.147,1.046,1.979,2.415,1.928c1.338-0.049,2.309-0.943,2.265-2.125c-0.033-0.89-0.728-1.992-2.383-1.931
			C220.043,423.543,219.366,424.611,219.402,425.609z"/>
		<path d="M232.864,427.529c-0.361,0.144-1.167,0.348-2.202,0.386c-2.324,0.086-3.876-0.932-3.936-2.535
			c-0.06-1.615,1.52-2.847,4.036-2.939c0.828-0.03,1.564,0.081,1.952,0.197l-0.292,0.75c-0.339-0.118-0.869-0.218-1.633-0.188
			c-1.767,0.065-2.689,0.99-2.649,2.086c0.045,1.214,1.22,1.918,2.748,1.86c0.796-0.028,1.316-0.188,1.709-0.322L232.864,427.529z"
			/>
		<path d="M235.791,424.771l0.032-0.003c0.184-0.19,0.446-0.429,0.663-0.622l2.193-1.895l1.688-0.063l-2.897,2.269l3.505,2.964
			l-1.702,0.063l-2.752-2.416l-0.696,0.567l0.073,1.975l-1.385,0.051l-0.286-7.698l1.385-0.051L235.791,424.771z"/>
	</g>
	<g enable-background="new    ">
		<path d="M222.461,475.603c-0.582,0.249-1.754,0.521-3.267,0.576c-3.506,0.13-6.208-1.473-6.324-4.606
			c-0.111-2.992,2.452-5.118,6.308-5.262c1.55-0.058,2.538,0.161,2.968,0.315l-0.35,1.021c-0.618-0.205-1.491-0.344-2.524-0.306
			c-2.916,0.108-4.799,1.613-4.706,4.123c0.087,2.34,1.896,3.778,4.921,3.666c0.978-0.036,1.968-0.229,2.606-0.494L222.461,475.603z
			"/>
		<path d="M226.056,466.935l0.073,1.973l2.325-0.086l0.035,0.948l-2.325,0.087l0.138,3.701c0.032,0.852,0.363,1.321,1.267,1.288
			c0.424-0.016,0.737-0.069,0.938-0.12l0.108,0.934c-0.31,0.11-0.805,0.2-1.433,0.224c-0.756,0.028-1.372-0.134-1.772-0.459
			c-0.475-0.352-0.663-0.956-0.693-1.764l-0.139-3.745l-1.384,0.052l-0.035-0.949l1.384-0.052l-0.061-1.646L226.056,466.935z"/>
		<path d="M230.359,470.893c-0.03-0.808-0.074-1.502-0.153-2.138l1.421-0.053l0.105,1.345l0.074-0.003
			c0.372-0.936,1.328-1.555,2.417-1.595c0.185-0.007,0.314,0.003,0.463,0.024l0.044,1.178c-0.167-0.021-0.333-0.03-0.555-0.022
			c-1.144,0.043-1.931,0.74-2.118,1.684c-0.03,0.174-0.06,0.372-0.052,0.586l0.136,3.657l-1.605,0.061L230.359,470.893z"/>
		<path d="M236.268,465.32l1.624-0.062l0.374,10.068l-1.624,0.061L236.268,465.32z"/>
	</g>
	<g enable-background="new    ">
		<path d="M303.713,470.103l-0.949,2.829l-1.354,0.051l3.116-8.997l1.58-0.06l3.792,8.74l-1.4,0.053l-1.188-2.75L303.713,470.103z
			 M307.006,469.084l-1.088-2.517c-0.248-0.569-0.418-1.092-0.587-1.599l-0.03,0.001c-0.131,0.531-0.276,1.077-0.452,1.624
			l-0.898,2.604L307.006,469.084z"/>
		<path d="M310.952,463.271l1.324-0.05l0.348,9.344l-1.324,0.049L310.952,463.271z"/>
		<path d="M316.143,464.225l0.067,1.83l1.896-0.069l0.033,0.881l-1.896,0.069l0.127,3.435c0.03,0.791,0.303,1.229,1.04,1.201
			c0.346-0.014,0.601-0.063,0.765-0.107l0.093,0.866c-0.253,0.102-0.656,0.183-1.169,0.201c-0.616,0.022-1.119-0.129-1.447-0.435
			c-0.389-0.328-0.546-0.889-0.573-1.64l-0.13-3.474l-1.128,0.042l-0.033-0.882l1.129-0.042l-0.057-1.526L316.143,464.225z"/>
	</g>
	<g enable-background="new    ">
		<path d="M514.104,463.636l-0.95,2.829l-1.354,0.051l3.116-8.997l1.581-0.06l3.791,8.741l-1.399,0.052l-1.188-2.75L514.104,463.636
			z M517.397,462.618l-1.089-2.519c-0.248-0.568-0.418-1.09-0.588-1.598l-0.028,0.002c-0.132,0.53-0.276,1.077-0.452,1.623
			l-0.898,2.604L517.397,462.618z"/>
		<path d="M521.343,456.805l1.324-0.049l0.348,9.343l-1.323,0.05L521.343,456.805z"/>
		<path d="M526.533,457.759l0.067,1.83l1.896-0.071l0.032,0.882l-1.896,0.07l0.127,3.436c0.029,0.789,0.302,1.228,1.04,1.2
			c0.346-0.014,0.601-0.063,0.764-0.107l0.094,0.865c-0.252,0.102-0.656,0.183-1.168,0.202c-0.617,0.021-1.12-0.131-1.448-0.436
			c-0.389-0.327-0.545-0.889-0.573-1.638l-0.129-3.476l-1.129,0.042l-0.032-0.881l1.129-0.042l-0.057-1.526L526.533,457.759z"/>
		<path d="M537.977,465.146c-0.579,0.205-1.728,0.553-3.097,0.604c-1.535,0.057-2.813-0.238-3.836-1.03
			c-0.9-0.705-1.486-1.868-1.538-3.25c-0.083-2.646,1.922-4.657,5.323-4.784c1.174-0.044,2.101,0.146,2.544,0.314l-0.281,0.946
			c-0.55-0.19-1.232-0.337-2.257-0.299c-2.468,0.092-4.028,1.493-3.946,3.718c0.084,2.251,1.685,3.521,4.046,3.435
			c0.857-0.031,1.44-0.159,1.737-0.302l-0.099-2.646l-2.063,0.076l-0.034-0.921l3.342-0.124L537.977,465.146z"/>
		<path d="M539.788,461.088c-0.028-0.75-0.067-1.396-0.134-1.984l1.158-0.043l0.092,1.248l0.061-0.002
			c0.299-0.869,1.076-1.438,1.965-1.471c0.15-0.006,0.258,0.004,0.377,0.026l0.041,1.092c-0.136-0.021-0.271-0.03-0.452-0.023
			c-0.934,0.034-1.572,0.679-1.722,1.554c-0.022,0.159-0.047,0.346-0.04,0.542l0.126,3.396l-1.31,0.049L539.788,461.088z"/>
	</g>
	<g enable-background="new    ">
		<path d="M592.383,462.611c-0.475,0.229-1.43,0.475-2.663,0.521c-2.858,0.106-5.07-1.392-5.18-4.3
			c-0.104-2.777,1.979-4.739,5.125-4.856c1.264-0.047,2.07,0.161,2.423,0.308l-0.281,0.945c-0.506-0.192-1.217-0.323-2.061-0.293
			c-2.379,0.089-3.909,1.476-3.822,3.806c0.08,2.171,1.563,3.513,4.029,3.421c0.799-0.029,1.604-0.204,2.124-0.447L592.383,462.611z
			"/>
		<path d="M595.281,454.584l0.067,1.83l1.896-0.07l0.032,0.881l-1.896,0.07l0.128,3.436c0.029,0.788,0.302,1.228,1.039,1.199
			c0.346-0.013,0.6-0.062,0.766-0.106l0.093,0.866c-0.254,0.101-0.656,0.183-1.168,0.2c-0.618,0.023-1.121-0.128-1.448-0.433
			c-0.39-0.329-0.546-0.891-0.574-1.64l-0.129-3.476l-1.128,0.042l-0.032-0.881l1.128-0.042l-0.058-1.527L595.281,454.584z"/>
		<path d="M598.811,458.275c-0.026-0.751-0.066-1.396-0.134-1.985l1.159-0.043l0.091,1.248l0.062-0.002
			c0.3-0.868,1.075-1.438,1.965-1.472c0.149-0.005,0.257,0.006,0.378,0.026l0.04,1.092c-0.136-0.021-0.271-0.029-0.452-0.022
			c-0.934,0.035-1.573,0.679-1.722,1.554c-0.024,0.159-0.048,0.345-0.04,0.542l0.126,3.396l-1.31,0.049L598.811,458.275z"/>
		<path d="M603.608,453.128l1.324-0.049l0.349,9.344l-1.325,0.049L603.608,453.128z"/>
	</g>
	<g enable-background="new    ">
		<path d="M249.127,352.057l-0.031,0.001l-1.731,0.767l-0.293-0.759l2.177-0.956l1.166-0.043l0.277,7.464l-1.321,0.049
			L249.127,352.057z"/>
	</g>
	<g enable-background="new    ">
		<path d="M253.957,372.21c-0.304-0.207-0.593-0.414-1.008-0.722c-0.88,0.653-1.881,0.955-3.032,0.998
			c-2.037,0.075-3.257-0.891-3.3-2.05c-0.039-1.057,0.789-1.813,1.97-2.34l-0.002-0.034c-0.563-0.483-0.91-1.034-0.931-1.585
			c-0.035-0.941,0.846-1.939,2.588-2.006c1.307-0.048,2.342,0.557,2.379,1.557c0.03,0.813-0.583,1.48-2.226,2.151l0.002,0.034
			c0.915,0.727,1.941,1.537,2.631,2.064c0.462-0.56,0.761-1.316,0.927-2.302l1.244-0.046c-0.234,1.229-0.65,2.21-1.402,2.915
			c0.576,0.416,1.137,0.832,1.777,1.304L253.957,372.21z M252.259,370.939c-0.642-0.481-1.843-1.381-3.046-2.324
			c-0.551,0.285-1.324,0.809-1.294,1.624c0.032,0.884,0.943,1.527,2.203,1.48C251.024,371.688,251.775,371.36,252.259,370.939z
			 M248.895,366.34c0.021,0.55,0.379,0.963,0.845,1.359c1.041-0.487,1.71-0.926,1.686-1.58c-0.018-0.471-0.395-0.987-1.25-0.955
			C249.304,365.196,248.873,365.742,248.895,366.34z"/>
		<path d="M260.975,363.326l0.427,11.48l-1.043,0.039l-0.427-11.48L260.975,363.326z"/>
	</g>
	<g enable-background="new    ">
		<path d="M273.895,357.835l-0.024-0.679l0.874-0.875c2.103-2.066,3.047-3.158,3.015-4.391c-0.031-0.829-0.479-1.581-1.751-1.533
			c-0.774,0.028-1.402,0.431-1.784,0.76l-0.396-0.768c0.572-0.498,1.398-0.881,2.382-0.918c1.836-0.066,2.655,1.109,2.698,2.277
			c0.057,1.508-1.04,2.77-2.774,4.494l-0.659,0.629l0.001,0.025l3.829-0.144l0.034,0.917L273.895,357.835z"/>
	</g>
	<g enable-background="new    ">
		<path d="M275.36,370.04c0.082,1.494,1.101,2.073,2.255,2.03c0.826-0.03,1.319-0.188,1.745-0.38l0.227,0.784
			c-0.4,0.19-1.087,0.418-2.098,0.455c-1.953,0.072-3.167-1.114-3.235-2.949c-0.067-1.834,1.007-3.32,2.855-3.391
			c2.072-0.076,2.688,1.649,2.729,2.769c0.009,0.227-0.012,0.401-0.021,0.516L275.36,370.04z M278.714,369.123
			c-0.014-0.704-0.368-1.785-1.667-1.737c-1.167,0.043-1.64,1.093-1.703,1.862L278.714,369.123z M278.801,364.038l-1.533,1.854
			l-0.826,0.031l1.087-1.839L278.801,364.038z"/>
		<path d="M290.112,373.142c-0.708,0.392-1.437,0.557-2.314,0.589c-2.151,0.079-4.03-1.359-4.12-3.771
			c-0.096-2.588,1.696-4.895,4.607-5.003c2.281-0.084,3.873,1.392,3.951,3.489c0.07,1.885-0.99,3.03-2.224,3.077
			c-0.524,0.02-1.022-0.302-1.011-1.069l-0.053,0.002c-0.432,0.758-1.021,1.145-1.809,1.174c-0.76,0.028-1.438-0.538-1.475-1.53
			c-0.058-1.559,1.175-3.024,2.997-3.093c0.564-0.021,1.066,0.073,1.413,0.212l-0.361,2.29c-0.161,0.963,0.013,1.396,0.445,1.394
			c0.67-0.014,1.386-0.895,1.331-2.353c-0.067-1.821-1.257-3.087-3.289-3.012c-2.138,0.08-3.874,1.768-3.779,4.318
			c0.078,2.099,1.556,3.34,3.496,3.268c0.747-0.028,1.437-0.205,1.964-0.514L290.112,373.142z M289.189,367.74
			c-0.133-0.033-0.356-0.075-0.658-0.063c-1.154,0.043-2.047,1.119-2.001,2.338c0.021,0.555,0.323,0.944,0.9,0.924
			c0.761-0.028,1.421-0.983,1.536-1.768L289.189,367.74z"/>
	</g>
	<g enable-background="new    ">
		<path d="M305.781,354.773c0.337,0.171,1.112,0.427,1.917,0.396c1.49-0.056,1.922-0.891,1.886-1.504
			c-0.052-1.032-1.149-1.437-2.271-1.394l-0.646,0.022l-0.028-0.75l0.646-0.022c0.845-0.032,1.898-0.446,1.866-1.321
			c-0.022-0.591-0.477-1.099-1.545-1.059c-0.687,0.025-1.336,0.313-1.696,0.554l-0.331-0.717c0.438-0.3,1.298-0.615,2.222-0.65
			c1.688-0.063,2.484,0.771,2.519,1.67c0.028,0.761-0.476,1.428-1.519,1.796l0.001,0.022c1.062,0.143,1.944,0.794,1.983,1.826
			c0.044,1.183-0.986,2.254-3.044,2.33c-0.963,0.036-1.816-0.192-2.247-0.416L305.781,354.773z"/>
	</g>
	<g enable-background="new    ">
		<path d="M306.646,366.685l1.845,2.023l-0.937,0.035l-1.818-2.024l1.663-2.154l0.937-0.035L306.646,366.685z M308.81,366.604
			l1.845,2.023l-0.937,0.034l-1.818-2.023l1.663-2.155l0.937-0.034L308.81,366.604z"/>
		<path d="M315.015,369.24l0.26-2.24l-1.081,0.04l-0.025-0.669l1.2-0.045l0.189-1.656l-1.135,0.042l-0.024-0.67l1.253-0.047
			l0.263-2.184l0.765-0.027l-0.249,2.183l1.372-0.052l0.262-2.183l0.778-0.028l-0.249,2.182l1.081-0.04l0.025,0.67l-1.2,0.045
			l-0.176,1.656l1.134-0.042l0.025,0.669l-1.253,0.046l-0.261,2.24l-0.791,0.03l0.26-2.241l-1.371,0.052l-0.261,2.24L315.015,369.24
			z M317.531,366.246l0.189-1.657l-1.372,0.052l-0.188,1.656L317.531,366.246z"/>
	</g>
	<g enable-background="new    ">
		<path d="M342.055,355.299l-0.074-1.992l-4.545,0.169l-0.023-0.651l4.19-4.832l1.43-0.054l0.169,4.546l1.369-0.052l0.029,0.776
			l-1.37,0.051l0.074,1.992L342.055,355.299z M341.952,352.53l-0.091-2.441c-0.015-0.383-0.014-0.767,0.003-1.148l-0.046,0.002
			c-0.284,0.438-0.514,0.762-0.772,1.109l-2.3,2.575v0.022L341.952,352.53z"/>
	</g>
	<g enable-background="new    ">
		<path d="M338.129,363.991c0.311-0.958,0.912-2.197,1.3-2.73l0.84-0.099c-0.291,0.675-0.654,1.85-0.79,2.666L338.129,363.991z"/>
	</g>
	<g enable-background="new    ">
		<path d="M374.28,347.191l-3.732,0.139l-0.304,1.973c0.226-0.031,0.435-0.063,0.796-0.076c0.753-0.027,1.51,0.071,2.123,0.331
			c0.78,0.313,1.436,0.944,1.472,1.906c0.056,1.489-1.423,2.659-3.545,2.738c-1.069,0.04-1.98-0.161-2.456-0.378l0.302-0.798
			c0.414,0.173,1.22,0.377,2.107,0.344c1.249-0.046,2.295-0.72,2.257-1.739c-0.052-0.983-0.921-1.656-2.877-1.584
			c-0.558,0.021-0.991,0.084-1.352,0.133l0.496-3.682l4.681-0.174L374.28,347.191z"/>
	</g>
	<g enable-background="new    ">
		<path d="M372.209,359.975c-1.057,1.189-1.798,2.744-1.719,4.867c0.077,2.086,0.961,3.557,2.073,4.689l-1.038,0.038
			c-0.985-0.938-2.064-2.4-2.148-4.688c-0.071-2.313,0.881-3.851,1.793-4.87L372.209,359.975z"/>
	</g>
	<g enable-background="new    ">
		<path d="M399.477,346.527c-0.246-0.002-0.559,0.021-0.898,0.08c-1.871,0.329-2.823,1.519-2.983,2.744l0.041-0.002
			c0.405-0.482,1.127-0.897,2.108-0.935c1.568-0.059,2.707,0.847,2.761,2.294c0.051,1.354-1.007,2.648-2.848,2.717
			c-1.895,0.07-3.181-1.111-3.252-3.038c-0.054-1.458,0.53-2.632,1.376-3.395c0.714-0.63,1.681-1.042,2.795-1.197
			c0.352-0.06,0.651-0.081,0.869-0.09L399.477,346.527z M399.295,350.813c-0.04-1.062-0.786-1.671-1.891-1.63
			c-0.723,0.026-1.377,0.429-1.684,0.976c-0.078,0.116-0.127,0.267-0.12,0.449c0.072,1.218,0.774,2.093,2.028,2.046
			C398.665,352.614,399.334,351.87,399.295,350.813z"/>
	</g>
	<g enable-background="new    ">
		<path d="M399.723,360.148c-0.36-0.17-0.913-0.332-1.648-0.306c-0.805,0.03-1.406,0.384-1.387,0.896
			c0.021,0.592,0.711,0.784,1.744,1.029c1.268,0.296,2.251,0.691,2.289,1.718c0.022,0.592-0.303,1.038-0.835,1.412
			c0.238,0.149,0.538,0.515,0.556,0.981c0.044,1.195-1.259,1.758-2.526,1.806c-0.832,0.03-1.629-0.101-2.158-0.399l0.303-0.66
			c0.335,0.181,1.013,0.43,1.817,0.399c0.872-0.032,1.515-0.388,1.492-0.99c-0.021-0.536-0.427-0.807-1.708-1.123
			c-1.419-0.347-2.402-0.732-2.438-1.711c-0.017-0.435,0.237-0.956,0.945-1.37c-0.279-0.173-0.512-0.553-0.539-0.938
			c-0.038-1.004,1.057-1.659,2.461-1.712c0.764-0.027,1.424,0.107,1.896,0.307L399.723,360.148z M397.671,364.068
			c0.703,0.179,1.255,0.33,1.574,0.488c0.334-0.218,0.499-0.544,0.485-0.896c-0.016-0.435-0.356-0.787-1.252-1.017
			c-0.552-0.149-1.255-0.316-1.698-0.518c-0.427,0.277-0.607,0.569-0.595,0.911C396.201,363.45,396.581,363.779,397.671,364.068z"/>
		<path d="M410.803,364.345l-2.44-4.335l-0.027,0.001l-2.112,4.504l-0.954,0.036l2.626-5.355l0.846-0.031l3.017,5.146
			L410.803,364.345z"/>
	</g>
	<g enable-background="new    ">
		<path d="M433.093,344.095l0.024,0.666l-4.006,6.955l-1.37,0.051l3.999-6.76l-0.001-0.022l-4.786,0.178l-0.03-0.838
			L433.093,344.095z"/>
	</g>
	<g enable-background="new    ">
		<path d="M428.594,362.939c0.081,1.364,1.246,1.886,2.57,1.837c0.947-0.035,1.515-0.185,2.006-0.363l0.253,0.717
			c-0.461,0.178-1.252,0.392-2.411,0.435c-2.242,0.083-3.623-0.992-3.686-2.67c-0.063-1.676,1.183-3.044,3.305-3.122
			c2.378-0.089,3.069,1.482,3.107,2.507c0.008,0.206-0.018,0.367-0.027,0.471L428.594,362.939z M432.45,362.072
			c-0.01-0.645-0.408-1.629-1.897-1.574c-1.34,0.05-1.892,1.014-1.971,1.719L432.45,362.072z M430.05,357.516l1.386,1.595
			l-0.947,0.034l-1.897-1.573L430.05,357.516z"/>
	</g>
	<g enable-background="new    ">
		<path d="M454.753,349.204c-0.035-0.952,0.678-1.652,1.866-2.093l-0.017-0.035c-1.099-0.354-1.59-0.987-1.612-1.639
			c-0.045-1.197,1.233-2.06,2.95-2.123c1.896-0.07,2.878,0.813,2.912,1.754c0.024,0.64-0.355,1.34-1.545,1.825l0.002,0.034
			c1.232,0.327,2.011,0.961,2.045,1.879c0.049,1.313-1.379,2.251-3.244,2.32C456.063,351.204,454.794,350.31,454.753,349.204z
			 M460.021,348.962c-0.034-0.918-0.88-1.328-2.215-1.569c-1.134,0.299-1.729,0.901-1.703,1.622
			c-0.017,0.77,0.762,1.414,2.011,1.368C459.301,350.339,460.048,349.741,460.021,348.962z M456.236,345.321
			c0.027,0.756,0.78,1.135,1.918,1.325c0.835-0.253,1.465-0.74,1.438-1.428c-0.021-0.604-0.513-1.214-1.701-1.17
			C456.793,344.091,456.212,344.672,456.236,345.321z"/>
	</g>
	<g enable-background="new    ">
		<path d="M455.921,362.784l-0.418-5.569l1.445-0.054l-0.004,5.585L455.921,362.784z M455.606,364.46
			c-0.017-0.419,0.35-0.734,0.86-0.754c0.541-0.021,0.899,0.269,0.915,0.688c0.016,0.406-0.32,0.732-0.861,0.753
			C455.994,365.166,455.621,364.866,455.606,364.46z"/>
	</g>
	<g enable-background="new    ">
		<path d="M484.654,348.939c0.313,0.011,0.672-0.024,1.163-0.078c0.833-0.111,1.609-0.383,2.201-0.808
			c0.688-0.474,1.173-1.146,1.336-2.038l-0.049,0.002c-0.571,0.526-1.413,0.856-2.479,0.896c-1.918,0.071-3.186-0.893-3.232-2.167
			c-0.053-1.412,1.36-2.707,3.541-2.788c2.18-0.081,3.57,1.109,3.642,3.015c0.062,1.643-0.684,2.819-1.706,3.57
			c-0.799,0.594-1.916,0.979-3.062,1.114c-0.521,0.077-0.98,0.104-1.326,0.105L484.654,348.939z M485.021,344.625
			c0.033,0.93,0.86,1.556,2.106,1.509c0.967-0.036,1.709-0.396,2.069-0.858c0.079-0.096,0.124-0.213,0.117-0.373
			c-0.048-1.274-0.756-2.226-2.264-2.169C485.82,342.778,484.979,343.569,485.021,344.625z"/>
	</g>
	<g enable-background="new    ">
		<path d="M490.479,363.032c-0.34,0.14-1.088,0.351-2.069,0.397l-0.394,0.476c0.594,0.059,1.161,0.325,1.18,0.796
			c0.024,0.688-0.784,0.982-1.67,1.017c-0.376,0.015-0.84-0.038-1.154-0.152l0.227-0.526c0.25,0.095,0.579,0.128,0.907,0.116
			c0.377-0.016,0.702-0.106,0.691-0.382c-0.028-0.31-0.524-0.406-1.296-0.436l0.654-0.911c-2.021-0.096-3.356-1.14-3.415-2.678
			c-0.063-1.711,1.563-3.012,4.152-3.108c0.853-0.03,1.611,0.09,2.01,0.212l-0.299,0.795c-0.349-0.125-0.895-0.232-1.682-0.203
			c-1.819,0.066-2.769,1.046-2.726,2.205c0.049,1.286,1.258,2.034,2.831,1.977c0.819-0.03,1.371-0.2,1.761-0.341L490.479,363.032z"
			/>
		<path d="M494.742,359.481c1.164-0.045,1.312-0.498,1.296-0.898c-0.012-0.322-0.089-0.641-0.167-0.961
			c-0.077-0.317-0.154-0.626-0.166-0.947c-0.04-1.057,0.928-1.54,2.32-1.592l0.345-0.013l0.023,0.632l-0.296,0.011
			c-0.968,0.036-1.28,0.414-1.259,1.035c0.01,0.264,0.069,0.537,0.146,0.811c0.077,0.284,0.137,0.559,0.147,0.868
			c0.043,0.734-0.402,1.119-1.135,1.284l0.001,0.022c0.742,0.1,1.216,0.473,1.227,1.208c0.013,0.31-0.025,0.6-0.083,0.877
			c-0.054,0.289-0.094,0.556-0.083,0.831c0.023,0.643,0.414,0.984,1.332,0.95l0.296-0.011l0.022,0.632l-0.345,0.014
			c-1.359,0.051-2.393-0.326-2.436-1.485c-0.012-0.312,0.042-0.634,0.097-0.947c0.054-0.312,0.107-0.624,0.097-0.935
			c-0.013-0.356-0.195-0.844-1.358-0.8L494.742,359.481z"/>
	</g>
	<g enable-background="new    ">
		<path d="M520.59,344.925c0.093,2.486-1.037,3.903-3.112,3.98c-1.829,0.067-3.118-1.226-3.237-3.645
			c-0.091-2.453,1.214-3.854,3.115-3.925C519.329,341.264,520.504,342.595,520.59,344.925z M515.508,345.227
			c0.071,1.901,0.86,2.953,2.013,2.91c1.298-0.048,1.873-1.253,1.805-3.12c-0.067-1.801-0.702-2.96-2.014-2.91
			C516.201,342.146,515.435,343.234,515.508,345.227z"/>
	</g>
	<g enable-background="new    ">
		<path d="M519.271,362.229l-0.125-0.683l-0.044,0.002c-0.372,0.442-1.107,0.853-2.103,0.89c-1.412,0.053-2.161-0.697-2.19-1.485
			c-0.05-1.316,1.423-2.092,4.117-2.181l-0.004-0.112c-0.017-0.45-0.205-1.254-1.632-1.201c-0.648,0.024-1.319,0.207-1.801,0.473
			l-0.313-0.643c0.565-0.314,1.396-0.537,2.273-0.569c2.132-0.079,2.692,1.039,2.733,2.13l0.075,2.036
			c0.019,0.475,0.063,0.935,0.164,1.303L519.271,362.229z M516.834,354.511l1.313,1.563l-0.895,0.033l-1.817-1.546L516.834,354.511z
			 M518.979,359.457c-1.385,0.028-2.946,0.278-2.907,1.337c0.022,0.641,0.583,0.924,1.229,0.9c0.908-0.034,1.468-0.507,1.653-0.976
			c0.039-0.102,0.063-0.216,0.06-0.316L518.979,359.457z"/>
		<path d="M527.938,358.956c-1.023,0.038-1.149,0.526-1.138,0.875c0.013,0.304,0.08,0.605,0.149,0.907
			c0.068,0.302,0.139,0.613,0.148,0.919c0.042,1.136-0.851,1.576-2.031,1.62l-0.303,0.011l-0.022-0.62l0.245-0.009
			c0.807-0.041,1.141-0.393,1.116-1.021c-0.011-0.271-0.077-0.526-0.132-0.807c-0.066-0.27-0.136-0.547-0.146-0.853
			c-0.027-0.721,0.361-1.116,0.991-1.264l-0.001-0.022c-0.64-0.111-1.057-0.457-1.082-1.178c-0.013-0.304,0.036-0.575,0.083-0.858
			c0.033-0.272,0.081-0.544,0.07-0.804c-0.021-0.607-0.338-0.944-1.174-0.927l-0.26,0.01l-0.022-0.617l0.288-0.012
			c1.226-0.045,2.119,0.361,2.158,1.396c0.012,0.314-0.035,0.62-0.081,0.938s-0.092,0.636-0.08,0.949
			c0.016,0.395,0.175,0.828,1.198,0.79L527.938,358.956z"/>
	</g>
	<g enable-background="new    ">
		<path d="M550.927,340.61c0.034,0.928-0.906,1.57-1.93,1.608c-1.156,0.043-1.968-0.604-1.997-1.404
			c-0.048-0.883,0.817-1.579,1.914-1.619C550.13,339.149,550.897,339.831,550.927,340.61z M547.802,340.784
			c0.021,0.525,0.538,0.92,1.189,0.896c0.668-0.023,1.155-0.466,1.135-1.026c-0.016-0.425-0.362-0.95-1.207-0.919
			C548.148,339.763,547.783,340.292,547.802,340.784z"/>
	</g>
	<g enable-background="new    ">
		<path d="M547.664,362.238c1.01-1.173,1.769-2.691,1.69-4.754c-0.074-2.051-0.93-3.485-2.037-4.58l1.007-0.038
			c0.981,0.905,2.03,2.335,2.114,4.59c0.082,2.244-0.855,3.734-1.769,4.744L547.664,362.238z"/>
	</g>
	<g enable-background="new    ">
		<path d="M577.919,342.739l0.025,0.684l-2.994,0.111l-0.025-0.685L577.919,342.739z"/>
	</g>
	<g enable-background="new    ">
		<path d="M581.239,359.249l0.02,0.526L575.197,360l-0.021-0.526L581.239,359.249z"/>
	</g>
	<g enable-background="new    ">
		<path d="M265.916,388.256l-0.949,2.829l-1.354,0.051l3.116-8.997l1.58-0.059l3.792,8.74l-1.399,0.052l-1.188-2.75L265.916,388.256
			z M269.209,387.237l-1.088-2.517c-0.248-0.569-0.418-1.091-0.587-1.599l-0.03,0.001c-0.131,0.531-0.276,1.078-0.452,1.624
			l-0.897,2.603L269.209,387.237z"/>
	</g>
	<g enable-background="new    ">
		<path d="M292.441,390.217l5.361-7.407l-0.001-0.038l-5.147,0.19l-0.036-0.961l6.848-0.255l0.026,0.697l-5.332,7.38l0.001,0.04
			l5.674-0.211l0.036,0.96l-7.404,0.274L292.441,390.217z"/>
	</g>
	<g enable-background="new    ">
		<path d="M330.28,385.492l-5.769,0.214l0.122,3.287l6.43-0.238l0.037,0.987l-8.346,0.31l-0.339-9.116l8.016-0.298l0.036,0.988
			l-6.1,0.227l0.107,2.882l5.769-0.215L330.28,385.492z"/>
	</g>
	<g enable-background="new    ">
		<path d="M339.489,398.368c-0.383,0.249-1.03,0.506-1.861,0.536c-1.022,0.038-1.942-0.271-2.598-0.896
			c-0.496-0.45-0.836-1.083-0.979-1.882l-0.782,0.029l-0.02-0.544l0.719-0.026c-0.002-0.057-0.005-0.112-0.007-0.168
			c-0.006-0.178,0-0.346,0.007-0.502l-0.744,0.027l-0.021-0.557l0.832-0.029c0.122-0.786,0.478-1.445,0.965-1.922
			c0.621-0.612,1.428-0.978,2.462-1.017c0.744-0.027,1.331,0.141,1.69,0.293l-0.225,0.745c-0.321-0.155-0.856-0.28-1.424-0.259
			c-0.681,0.024-1.228,0.258-1.642,0.674c-0.366,0.336-0.6,0.847-0.704,1.442l3.519-0.132l0.021,0.557l-3.632,0.135
			c-0.008,0.146-0.014,0.313-0.008,0.469c0.002,0.067,0.004,0.123,0.007,0.201l3.657-0.136l0.021,0.544l-3.569,0.133
			c0.125,0.644,0.395,1.111,0.748,1.433c0.482,0.418,1.121,0.605,1.802,0.58c0.669-0.024,1.241-0.27,1.525-0.425L339.489,398.368z"
			/>
	</g>
	<g enable-background="new    ">
		<path d="M355.087,381.171c0.657-0.142,1.604-0.243,2.506-0.277c1.399-0.052,2.313,0.139,2.962,0.615
			c0.526,0.375,0.835,0.97,0.86,1.654c0.043,1.171-0.771,1.978-1.827,2.334l0.002,0.04c0.791,0.207,1.281,0.822,1.557,1.732
			c0.376,1.227,0.649,2.071,0.873,2.406l-1.354,0.05c-0.176-0.243-0.43-0.998-0.757-2.093c-0.346-1.213-0.905-1.652-2.096-1.647
			l-1.233,0.046l0.143,3.842l-1.31,0.049L355.087,381.171z M356.546,385.163l1.34-0.05c1.399-0.053,2.263-0.757,2.225-1.771
			c-0.042-1.146-1.009-1.609-2.395-1.57c-0.632,0.022-1.081,0.092-1.29,0.151L356.546,385.163z"/>
	</g>
	<g enable-background="new    ">
		<path d="M385.888,380.609l-3.085,0.113l-0.036-0.973l7.51-0.279l0.036,0.974l-3.101,0.114l0.294,7.896l-1.325,0.05
			L385.888,380.609z"/>
	</g>
	<g enable-background="new    ">
		<path d="M413.476,387.216l-0.14-3.765l-3.396-4.985l1.49-0.056l1.521,2.395c0.417,0.656,0.737,1.185,1.076,1.791l0.03-0.001
			c0.265-0.59,0.589-1.182,0.955-1.867l1.369-2.501l1.49-0.056l-3.212,5.218l0.14,3.777L413.476,387.216z"/>
	</g>
	<g enable-background="new    ">
		<path d="M439.797,377.356l0.195,5.25c0.074,1.986,1.113,2.79,2.468,2.74c1.505-0.056,2.436-0.96,2.363-2.921l-0.195-5.25
			l1.324-0.049l0.191,5.171c0.103,2.724-1.496,3.903-3.694,3.985c-2.076,0.077-3.682-0.905-3.782-3.655l-0.194-5.224
			L439.797,377.356z"/>
	</g>
	<g enable-background="new    ">
		<path d="M469.879,375.506l0.329,8.869l-1.31,0.049l-0.33-8.869L469.879,375.506z"/>
	</g>
	<g enable-background="new    ">
		<path d="M506.074,379.517c0.112,3.054-1.949,4.75-4.538,4.848c-2.679,0.1-4.627-1.646-4.728-4.33
			c-0.104-2.817,1.828-4.733,4.537-4.834C504.116,375.097,505.976,376.885,506.074,379.517z M498.208,379.955
			c0.07,1.894,1.308,3.548,3.369,3.472c2.077-0.077,3.188-1.793,3.114-3.806c-0.065-1.764-1.188-3.566-3.37-3.485
			C499.154,376.217,498.136,378.007,498.208,379.955z"/>
	</g>
	<g enable-background="new    ">
		<path d="M526.719,374.047c0.629-0.115,1.453-0.225,2.507-0.264c1.295-0.049,2.254,0.18,2.872,0.631
			c0.572,0.4,0.929,1.033,0.957,1.823c0.029,0.803-0.218,1.442-0.712,1.923c-0.668,0.671-1.785,1.042-3.063,1.089
			c-0.392,0.015-0.753,0.016-1.058-0.04l0.133,3.554l-1.311,0.049L526.719,374.047z M528.188,378.275
			c0.287,0.056,0.649,0.067,1.087,0.052c1.579-0.06,2.519-0.767,2.473-1.99c-0.044-1.171-1.013-1.7-2.457-1.646
			c-0.572,0.021-1.008,0.076-1.231,0.138L528.188,378.275z"/>
	</g>
	<g enable-background="new    ">
		<path d="M551.41,367.553c-0.013-0.354,0.367-0.658,0.842-0.676c0.476-0.018,0.842,0.246,0.854,0.612
			c0.014,0.34-0.315,0.654-0.809,0.674C551.79,368.182,551.423,367.893,551.41,367.553z M554.566,367.436
			c-0.014-0.354,0.351-0.656,0.824-0.676c0.477-0.018,0.843,0.247,0.855,0.613c0.013,0.34-0.316,0.655-0.81,0.673
			C554.93,368.065,554.579,367.775,554.566,367.436z"/>
	</g>
	<g enable-background="new    ">
		<path d="M559.965,387.837l-3.016-4.787l-0.034,0.002l-2.652,4.997l-1.188,0.045l3.298-5.943l1.053-0.039l3.729,5.683
			L559.965,387.837z"/>
		<path d="M567.299,391.366l-0.373-10.05l3.106-0.115l0.024,0.691l-1.95,0.072l0.321,8.664l1.951-0.072l0.025,0.693L567.299,391.366
			z"/>
	</g>
	<rect x="428.97" y="369.028" transform="matrix(0.9993 -0.0373 0.0373 0.9993 -13.9909 16.3163)" width="1.779" height="27.448"/>
	<g enable-background="new    ">
		<path d="M587.967,365.499l-1.847,1.557l0.001,0.024l3.014-0.352l0.03,0.811l-3.03-0.104l0.001,0.024l1.975,1.355l-1.245,0.476
			l-1.264-1.62l-0.04,0.001l-1.238,1.727l-1.157-0.388l1.848-1.521l-0.001-0.024l-2.955,0.337l-0.029-0.81l2.951,0.117v-0.024
			l-1.937-1.382l1.206-0.46l1.303,1.605l0.04-0.002l1.159-1.709L587.967,365.499z"/>
	</g>
	<g enable-background="new    ">
		<path d="M586.6,388.612l-0.045-1.201c-1.161,0.031-2.37-0.139-3.082-0.41l0.451-0.813c0.73,0.259,1.779,0.445,2.901,0.403
			c1.422-0.053,2.365-0.576,2.34-1.255c-0.024-0.653-0.821-1.029-2.316-1.33c-2.059-0.399-3.341-0.899-3.379-1.936
			c-0.037-0.987,1.117-1.78,2.952-2.027l-0.045-1.201l1.241-0.046l0.043,1.153c1.202-0.021,2.029,0.14,2.618,0.32l-0.472,0.803
			c-0.426-0.127-1.257-0.357-2.537-0.311c-1.542,0.059-2.104,0.626-2.085,1.103c0.022,0.618,0.775,0.898,2.532,1.263
			c2.081,0.424,3.146,1.003,3.186,2.063c0.035,0.939-1.034,1.859-3.088,2.14l0.046,1.236L586.6,388.612z"/>
		<path d="M600.459,378.902l0.353,9.49l-3.663,0.138l-0.024-0.654l2.303-0.086l-0.305-8.183l-2.303,0.086l-0.023-0.654
			L600.459,378.902z"/>
	</g>
	<g enable-background="new    ">
		<path d="M279.516,420.817c-1.382-0.266-2.734-0.57-3.922-0.884c-0.213-0.058-0.426-0.115-0.622-0.107
			c-2.411,0.01-4.53-1.466-4.637-4.321c-0.105-2.842,1.813-4.745,4.553-4.847c2.754-0.104,4.614,1.699,4.712,4.317
			c0.084,2.276-1.065,3.782-2.732,4.358l0.002,0.053c1.018,0.187,2.123,0.355,2.986,0.455L279.516,420.817z M278.217,415.081
			c-0.065-1.776-1.188-3.566-3.339-3.486c-2.213,0.082-3.23,1.911-3.144,3.832c0.055,1.882,1.307,3.536,3.354,3.46
			C277.18,418.809,278.292,417.107,278.217,415.081z"/>
	</g>
	<g enable-background="new    ">
		<path d="M304.425,417.19c0.599,0.294,1.467,0.524,2.37,0.491c1.339-0.05,2.099-0.697,2.065-1.593
			c-0.03-0.828-0.59-1.283-1.977-1.691c-1.675-0.451-2.727-1.163-2.772-2.413c-0.052-1.383,1.22-2.457,3.191-2.53
			c1.038-0.039,1.799,0.145,2.259,0.35l-0.326,0.949c-0.337-0.146-1.024-0.385-1.942-0.351c-1.385,0.052-1.885,0.796-1.862,1.399
			c0.031,0.83,0.663,1.215,2.081,1.637c1.736,0.515,2.637,1.206,2.685,2.51c0.051,1.368-1.063,2.596-3.456,2.685
			c-0.979,0.036-2.057-0.174-2.61-0.469L304.425,417.19z"/>
	</g>
	<g enable-background="new    ">
		<path d="M331.617,408.814c0.794-0.137,1.739-0.25,2.777-0.288c1.882-0.07,3.235,0.261,4.15,0.952
			c0.93,0.688,1.495,1.696,1.548,3.132c0.054,1.446-0.414,2.65-1.332,3.502c-0.917,0.863-2.466,1.369-4.438,1.441
			c-0.934,0.035-1.717,0.024-2.382-0.017L331.617,408.814z M333.219,416.608c0.332,0.04,0.814,0.034,1.326,0.017
			c2.8-0.104,4.269-1.529,4.18-3.925c-0.063-2.093-1.466-3.371-4.235-3.269c-0.678,0.024-1.188,0.097-1.53,0.176L333.219,416.608z"
			/>
	</g>
	<g enable-background="new    ">
		<path d="M361.731,407.829l5.463-0.203l0.036,0.961l-4.153,0.154l0.109,2.946l3.838-0.143l0.035,0.947l-3.838,0.143l0.149,4.015
			l-1.31,0.049L361.731,407.829z"/>
	</g>
	<g enable-background="new    ">
		<path d="M397.675,414.875c-0.58,0.206-1.728,0.552-3.098,0.603c-1.535,0.058-2.812-0.237-3.836-1.029
			c-0.899-0.704-1.486-1.868-1.538-3.25c-0.083-2.646,1.923-4.657,5.324-4.783c1.174-0.044,2.101,0.145,2.543,0.313l-0.281,0.947
			c-0.55-0.19-1.233-0.338-2.256-0.3c-2.469,0.092-4.029,1.494-3.947,3.718c0.084,2.251,1.684,3.522,4.047,3.436
			c0.857-0.031,1.44-0.159,1.736-0.303l-0.099-2.646l-2.062,0.076l-0.034-0.92l3.342-0.124L397.675,414.875z"/>
	</g>
	<g enable-background="new    ">
		<path d="M420.775,406.355l0.138,3.71l4.906-0.184l-0.139-3.71l1.324-0.05l0.329,8.869l-1.324,0.05l-0.153-4.158l-4.906,0.184
			l0.154,4.157l-1.311,0.049l-0.33-8.869L420.775,406.355z"/>
	</g>
	<g enable-background="new    ">
		<path d="M453.199,404.601l1.309-0.049l0.222,5.936c0.088,2.354-1.211,3.129-2.956,3.192c-0.481,0.019-1.071-0.052-1.407-0.157
			l0.16-0.941c0.274,0.083,0.669,0.146,1.104,0.13c1.174-0.044,1.851-0.529,1.785-2.267L453.199,404.601z"/>
	</g>
	<g enable-background="new    ">
		<path d="M481.266,404.508l1.311-0.048l0.159,4.276l0.045-0.002c0.258-0.354,0.517-0.68,0.763-0.979l2.978-3.443l1.625-0.061
			l-3.532,3.898l4.147,4.959l-1.551,0.058l-3.503-4.231l-0.927,1.012l0.126,3.381l-1.311,0.048L481.266,404.508z"/>
	</g>
	<g enable-background="new    ">
		<path d="M510.406,402.749l1.31-0.049l0.294,7.909l4.334-0.161l0.036,0.96l-5.645,0.21L510.406,402.749z"/>
	</g>
	<g enable-background="new    ">
		<path d="M546.113,406.403c-0.121-1.235-0.268-2.72-0.293-3.824l-0.045,0.001c-0.309,1.054-0.688,2.175-1.154,3.417l-1.631,4.369
			l-0.993,0.037l-1.798-4.163c-0.527-1.231-0.978-2.362-1.302-3.404l-0.03,0.001c0.011,1.106-0.009,2.596-0.05,3.93l-0.131,3.813
			l-1.248,0.047l0.378-8.896l1.671-0.063l1.89,4.225c0.462,1.077,0.845,2.038,1.135,2.949l0.045-0.001
			c0.223-0.903,0.548-1.892,0.957-3.026l1.647-4.356l1.67-0.062l0.962,8.846l-1.28,0.047L546.113,406.403z"/>
	</g>
	<g enable-background="new    ">
		<path d="M568.965,396.719c0.059,1.558-1.104,2.372-2.491,2.424c-1.339,0.051-2.522-0.645-2.596-2.132
			c-0.055-1.478,1.088-2.351,2.509-2.402C567.892,394.552,568.912,395.31,568.965,396.719z M565.034,396.934
			c0.001,0.943,0.541,1.641,1.449,1.606c0.96-0.036,1.361-0.757,1.325-1.733c-0.032-0.896-0.439-1.634-1.449-1.596
			C565.451,395.244,564.999,396.001,565.034,396.934z M566.489,402.248l6.029-7.868l0.927-0.035l-6.029,7.869L566.489,402.248z
			 M576.07,399.515c0.059,1.558-1.104,2.372-2.477,2.424c-1.339,0.05-2.521-0.646-2.594-2.12c-0.056-1.488,1.086-2.362,2.508-2.415
			C575.013,397.347,576.019,398.106,576.07,399.515z M572.139,399.729c0.02,0.942,0.574,1.64,1.468,1.605
			c0.959-0.035,1.361-0.756,1.325-1.732c-0.032-0.897-0.44-1.633-1.45-1.596C572.572,398.041,572.104,398.797,572.139,399.729z"/>
	</g>
	<g enable-background="new    ">
		<path d="M571.928,414.079c0.021,0.567,0.058,1.067,0.122,1.496l-1.289,0.048l-0.116-0.895l-0.032,0.002
			c-0.363,0.457-1.186,1.066-2.606,1.12c-1.256,0.047-2.777-0.374-2.85-2.306l-0.119-3.215l1.454-0.055l0.112,3.045
			c0.038,1.045,0.526,1.731,1.85,1.683c0.977-0.036,1.636-0.527,1.885-0.979c0.077-0.15,0.12-0.335,0.113-0.518l-0.125-3.374
			l1.454-0.054L571.928,414.079z M567.707,407.854l1.516,1.57l-1.042,0.039l-2.077-1.55L567.707,407.854z"/>
		<path d="M581.129,407.355l-1.955,1.699l-1.042,0.038l1.395-1.679L581.129,407.355z"/>
	</g>
	<g enable-background="new    ">
		<path d="M592.6,401.75l-0.021-0.563c0.916-0.418,1.54-1.185,1.509-2.028c-0.01-0.27-0.032-0.494-0.099-0.784l-1.43,0.053
			l-0.025-0.708l1.29-0.048c-0.082-0.336-0.182-0.771-0.197-1.211c-0.049-1.327,1.042-2.235,2.583-2.293
			c0.722-0.026,1.226,0.09,1.521,0.226l-0.25,0.753c-0.254-0.104-0.658-0.2-1.241-0.18c-1.083,0.04-1.506,0.664-1.477,1.463
			c0.02,0.484,0.116,0.843,0.212,1.199l1.999-0.074l0.026,0.708l-1.888,0.07c0.058,0.426,0.102,0.854-0.01,1.263
			c-0.134,0.49-0.453,0.906-0.912,1.25l0.002,0.022l4.135-0.153l0.031,0.822L592.6,401.75z"/>
	</g>
	<g enable-background="new    ">
		<path d="M597.844,414.224c-0.263,0.438-0.896,0.98-1.895,1.019c-0.611,0.021-1.188-0.137-1.493-0.542l0.025,0.675
			c0.021,0.598,0.072,1.598,0.229,2.043l-1.096,0.041c-0.151-0.333-0.236-1.13-0.27-1.996l-0.211-5.672l1.207-0.045l0.119,3.219
			c0.031,0.844,0.502,1.525,1.57,1.486c0.805-0.03,1.37-0.525,1.575-0.974c0.063-0.147,0.1-0.331,0.093-0.51l-0.124-3.343
			l1.207-0.045l0.146,3.949c0.022,0.598,0.185,0.828,0.67,0.833l-0.069,0.724c-0.14,0.038-0.221,0.053-0.414,0.06
			c-0.598,0.022-1.094-0.229-1.23-0.923L597.844,414.224z"/>
		<path d="M604.3,407.021l1.269,1.563l-0.86,0.032l-1.753-1.547L604.3,407.021z"/>
	</g>
	<g enable-background="new    ">
		<path d="M263.224,437.834l-6.877,3.107l-0.031-0.826l5.843-2.565l-0.001-0.023l-6.017-2.126l-0.031-0.826l7.09,2.59
			L263.224,437.834z"/>
	</g>
	<g enable-background="new    ">
		<path d="M256.749,451.793l6.878-3.119l0.03,0.826l-5.798,2.564l0.001,0.023l5.972,2.127l0.031,0.826l-7.09-2.602L256.749,451.793z
			"/>
		<path d="M272.191,455.211l-4.416-8.526l1.023-0.037l4.416,8.525L272.191,455.211z"/>
	</g>
	<g enable-background="new    ">
		<path d="M289.755,446.198l-2.903-8.772l1.385-0.051l1.371,4.441c0.342,1.094,0.653,2.188,0.865,3.037l0.03-0.001
			c0.133-0.888,0.41-1.951,0.714-3.11l1.188-4.522l1.37-0.051l1.401,4.453c0.325,1.043,0.635,2.086,0.82,3.014l0.03-0.001
			c0.174-0.98,0.424-1.979,0.698-3.097l1.174-4.522l1.34-0.05l-2.546,8.976l-1.369,0.051l-1.451-4.57
			c-0.357-1.121-0.601-1.98-0.77-2.871l-0.03,0.001c-0.147,0.89-0.341,1.767-0.675,2.925l-1.273,4.673L289.755,446.198z"/>
	</g>
	<g enable-background="new    ">
		<path d="M324.801,444.896l-1.367-1.912c-0.555-0.731-0.903-1.205-1.238-1.707l-0.03,0.001c-0.268,0.523-0.536,1.009-1.033,1.805
			l-1.147,1.992l-1.505,0.056l2.935-4.603l-3.143-4.271l1.52-0.057l1.417,2.028c0.397,0.564,0.7,1.002,0.988,1.465l0.045-0.001
			c0.267-0.537,0.508-0.954,0.862-1.534l1.308-2.13l1.505-0.057l-2.925,4.43l3.33,4.437L324.801,444.896z"/>
	</g>
	<g enable-background="new    ">
		<path d="M356.061,444.544c-0.474,0.229-1.429,0.474-2.663,0.521c-2.859,0.105-5.07-1.394-5.179-4.301
			c-0.104-2.776,1.979-4.738,5.124-4.854c1.265-0.048,2.071,0.16,2.423,0.306l-0.281,0.945c-0.504-0.192-1.218-0.323-2.061-0.292
			c-2.377,0.088-3.908,1.475-3.822,3.805c0.081,2.171,1.563,3.513,4.031,3.421c0.797-0.028,1.604-0.204,2.123-0.446L356.061,444.544
			z"/>
	</g>
	<g enable-background="new    ">
		<path d="M382.907,444.386l-3.641-8.746l1.415-0.053l1.741,4.31c0.481,1.183,0.897,2.247,1.208,3.276l0.03-0.001
			c0.247-1.036,0.627-2.172,1.035-3.346l1.554-4.446l1.399-0.052l-3.298,9.004L382.907,444.386z"/>
	</g>
	<g enable-background="new    ">
		<path d="M408.55,433.847c0.568-0.127,1.469-0.238,2.387-0.272c1.31-0.049,2.159,0.117,2.808,0.542
			c0.54,0.32,0.876,0.837,0.901,1.533c0.032,0.855-0.587,1.63-1.644,2.012l0.001,0.025c0.972,0.176,2.126,0.83,2.175,2.146
			c0.028,0.764-0.296,1.354-0.792,1.809c-0.687,0.594-1.82,0.899-3.476,0.961c-0.903,0.033-1.597,0.007-2.036-0.029L408.55,433.847z
			 M409.996,437.43l1.188-0.044c1.385-0.052,2.174-0.714,2.142-1.568c-0.038-1.039-0.956-1.413-2.28-1.364
			c-0.603,0.021-0.947,0.074-1.156,0.121L409.996,437.43z M410.153,441.68c0.258,0.029,0.634,0.029,1.101,0.013
			c1.354-0.051,2.588-0.53,2.54-1.82c-0.045-1.211-1.253-1.666-2.683-1.612l-1.083,0.04L410.153,441.68z"/>
	</g>
	<g enable-background="new    ">
		<path d="M435.848,441.596l-0.329-8.869l1.431-0.054l3.418,4.366c0.791,1.012,1.413,1.923,1.928,2.814l0.029-0.016
			c-0.164-1.179-0.234-2.258-0.286-3.64l-0.138-3.71l1.233-0.046l0.329,8.868l-1.324,0.05l-3.388-4.382
			c-0.743-0.96-1.459-1.948-2.007-2.891l-0.044,0.016c0.116,1.115,0.187,2.181,0.241,3.653l0.141,3.791L435.848,441.596z"/>
	</g>
	<g enable-background="new    ">
		<path d="M469.613,430.177l-0.05-0.31c-0.138-0.643,0.178-1.361,1.097-2.114c0.828-0.666,1.284-1.15,1.264-1.688
			c-0.021-0.611-0.644-0.996-1.836-0.965c-0.682,0.025-1.433,0.197-1.896,0.442l-0.483-0.736c0.614-0.312,1.687-0.543,2.688-0.58
			c2.176-0.08,3.19,0.732,3.226,1.644c0.03,0.813-0.667,1.427-1.55,2.143c-0.812,0.654-1.093,1.191-1.015,1.801l0.031,0.311
			L469.613,430.177z M469.259,431.868c-0.016-0.442,0.446-0.771,1.108-0.796c0.662-0.025,1.128,0.271,1.144,0.713
			c0.017,0.419-0.406,0.758-1.106,0.784C469.741,432.594,469.274,432.287,469.259,431.868z"/>
	</g>
	<g enable-background="new    ">
		<path d="M467.922,448.385c0.39-0.721,0.854-2.021,1.028-2.902l1.851-0.188c-0.396,1.032-1.181,2.394-1.688,2.975L467.922,448.385z
			"/>
	</g>
	<g enable-background="new    ">
		<path d="M498.364,431.404c-0.017-0.42,0.515-0.736,1.271-0.766c0.757-0.027,1.287,0.249,1.304,0.669
			c0.015,0.409-0.473,0.734-1.271,0.765C498.91,432.101,498.379,431.813,498.364,431.404z"/>
	</g>
	<g enable-background="new    ">
		<path d="M498.188,447.063c0.45-0.688,0.989-1.927,1.196-2.765l2.095-0.191c-0.482,0.984-1.389,2.281-1.975,2.838L498.188,447.063z
			 M498.896,441.039c-0.016-0.42,0.516-0.734,1.25-0.762c0.778-0.029,1.287,0.247,1.304,0.667c0.015,0.397-0.472,0.724-1.25,0.753
			C499.441,441.725,498.91,441.438,498.896,441.039z"/>
	</g>
	<g enable-background="new    ">
		<path d="M528.86,431.971l4.396-8.499l1.147-0.043l-4.413,8.5L528.86,431.971z"/>
	</g>
	<g enable-background="new    ">
		<path d="M530.077,440.624c-0.016-0.426,0.395-0.74,0.984-0.763c0.592-0.021,0.989,0.263,1.021,0.688
			c0.016,0.401-0.361,0.727-0.984,0.749C530.509,441.319,530.093,441.025,530.077,440.624z M530.229,444.677
			c-0.017-0.425,0.395-0.737,0.984-0.761c0.59-0.021,0.989,0.262,1.021,0.686c0.015,0.402-0.361,0.728-0.985,0.75
			C530.659,445.373,530.243,445.079,530.229,444.677z"/>
	</g>
	<g enable-background="new    ">
		<path d="M552.235,424.03l0.095,2.529l3.139-0.115l0.024,0.646l-3.141,0.116l0.096,2.551l-0.89,0.033l-0.095-2.551l-3.14,0.117
			l-0.024-0.646l3.141-0.117l-0.095-2.53L552.235,424.03z"/>
	</g>
	<g enable-background="new    ">
		<path d="M548.766,439.2l-0.023-0.646l7.168-0.267l0.023,0.645L548.766,439.2z M548.844,441.313l-0.023-0.646l7.168-0.267
			l0.023,0.646L548.844,441.313z"/>
		<path d="M563.108,440.036c-0.096-1.074,0.634-1.65,1.593-1.687c0.583-0.021,1.033,0.102,1.976,0.41
			c0.719,0.232,1.24,0.407,1.755,0.389c0.5-0.02,0.725-0.34,0.716-0.932l0.834-0.031c0.114,1.202-0.677,1.652-1.537,1.686
			c-0.557,0.021-1.061-0.091-2.032-0.399c-0.661-0.224-1.185-0.43-1.685-0.411c-0.5,0.02-0.796,0.3-0.8,0.945L563.108,440.036z"/>
	</g>
	<polyline points="632.573,344.732 609.984,345.344 609.718,338.171 599.154,349.688 610.202,355.458 609.771,352.28 
		632.821,351.424 	"/>
	<polyline points="634.928,365.803 635.468,380.338 622.451,380.822 622.278,376.161 614.76,385.093 624.054,392.987 
		623.039,388.177 640.446,387.531 638.063,365.686 	"/>
	<polyline points="240.966,383.462 221.103,384.2 220.95,380.086 213.466,387.169 221.357,391.059 221.241,387.905 241.103,387.167 
			"/>
	<polyline points="211.332,380.443 208.403,380.553 208.811,391.525 211.74,391.417 	"/>
	<polyline points="211.521,399.692 231.367,398.612 231.612,402.722 238.937,395.513 230.958,391.76 231.146,394.912 
		211.299,395.992 	"/>
	<polyline points="241.222,402.2 244.149,402.041 243.496,391.079 240.567,391.236 	"/>
	<polygon fill="none" stroke="#000000" stroke-miterlimit="10" points="218.829,455.426 233.255,454.89 233.139,451.735 
		239.725,451.49 225.729,438.278 211.472,451.855 218.691,451.722 	"/>
	<polygon fill="none" stroke="#000000" stroke-miterlimit="10" points="586.303,439.148 600.729,438.612 600.613,435.456 
		607.199,435.211 593.203,421.999 578.948,435.575 586.166,435.445 	"/>
	<path d="M573.995,454.453c-0.051-1.372-8.453,0.727-8.524-1.196c-0.07-1.919-0.554,6.201-0.554,6.201s7.592,1.505,7.84-0.291
		C573.005,457.374,573.995,454.453,573.995,454.453z"/>
	<path d="M572.831,461.155c-0.052-1.37-8.453,0.726-8.524-1.193c-0.07-1.919-0.554,6.201-0.554,6.201s7.592,1.505,7.84-0.291
		S572.831,461.155,572.831,461.155z"/>
	<path d="M565.247,453.585c-0.051-1.372-8.452,0.726-8.524-1.196c-0.069-1.919-0.553,6.201-0.553,6.201s7.594,1.504,7.84-0.291
		C564.258,456.506,565.247,453.585,565.247,453.585z"/>
	<path d="M564.092,460.521c-0.051-1.372-8.452,0.727-8.522-1.196c-0.072-1.92-0.556,6.201-0.556,6.201s7.595,1.504,7.841-0.292
		C563.103,463.441,564.092,460.521,564.092,460.521z"/>
	<path d="M283.975,465.405c-0.051-1.371-8.453,0.726-8.524-1.193c-0.071-1.92-0.554,6.2-0.554,6.2s7.594,1.505,7.84-0.291
		C282.985,468.326,283.975,465.405,283.975,465.405z"/>
	<path d="M282.811,472.109c-0.051-1.372-8.452,0.727-8.524-1.192c-0.071-1.923-0.555,6.197-0.555,6.197s7.594,1.505,7.841-0.291
		C281.821,475.031,282.811,472.109,282.811,472.109z"/>
	<path d="M275.228,464.539c-0.051-1.373-8.453,0.726-8.524-1.196c-0.071-1.919-0.554,6.201-0.554,6.201s7.593,1.504,7.841-0.292
		C274.237,467.46,275.228,464.539,275.228,464.539z"/>
	<path d="M274.072,471.473c-0.051-1.37-8.453,0.727-8.524-1.192c-0.071-1.919-0.554,6.201-0.554,6.201s7.592,1.501,7.84-0.291
		C273.081,474.394,274.072,471.473,274.072,471.473z"/>
	<path d="M619.031,449.345l18.034-0.67l1.8,18.887l-16.653-0.204C622.212,467.356,620.604,449.425,619.031,449.345z"/>
	<polygon fill="#FFFFFF" points="624.065,461.008 636.406,459.81 636.098,458.188 623.733,459.249 	"/>
	<polygon fill="#FFFFFF" points="623.899,456.549 634.09,455.679 633.782,454.054 623.567,454.788 	"/>
	<polygon fill="#FFFFFF" points="623.598,451.79 633.804,451.818 633.768,450.84 623.559,450.732 	"/>
	<polygon fill="#FFFFFF" points="624.919,464.892 637.255,463.693 636.949,462.069 624.584,463.133 	"/>
</g>
<g id="Calque_3">
	<g>
		<path fill="#0000FF" stroke="#C1272D" stroke-miterlimit="10" d="M424.347,342.094c-154.985,5.563-210.935,7.794-221.553,9.001
			l32.526-1.209l0.938,25.236l-33.872,1.258l-0.933-25.096c-0.396,0.075-0.6,0.146-0.621,0.212
			c-0.193,0.435,0.033,10.074,0.551,24.874c0.023,0.659,0.047,1.329,0.071,2.009c0.409,11.526-0.68-15.474,0,0l391.418-15.41
			l-1.052-26.933L424.347,342.094z M562.748,337.72l27.6-1.024l0.938,25.233l-27.601,1.025L562.748,337.72z M532.641,338.838
			l28.854-1.071l0.938,25.234l-28.854,1.072L532.641,338.838z M503.787,339.91l27.598-1.025l0.938,25.235l-27.599,1.026
			L503.787,339.91z M473.678,341.029l28.854-1.072l0.938,25.236l-28.854,1.07L473.678,341.029z M444.825,342.101l27.598-1.024
			l0.938,25.236l-27.601,1.024L444.825,342.101z M415.97,343.173l27.6-1.024l0.938,25.235l-27.6,1.025L415.97,343.173z
			 M385.863,344.293l28.853-1.073l0.938,25.235l-28.854,1.072L385.863,344.293z M355.754,345.411l28.854-1.072l0.938,25.235
			l-28.854,1.072L355.754,345.411z M326.901,346.483l27.599-1.025l0.938,25.235l-27.598,1.023L326.901,346.483z M296.792,347.602
			l28.854-1.07l0.938,25.233l-28.854,1.072L296.792,347.602z M267.938,348.674l27.599-1.024l0.938,25.234l-27.6,1.026
			L267.938,348.674z M236.576,349.839l30.108-1.118l0.938,25.235l-30.108,1.119L236.576,349.839z"/>
		<g enable-background="new    ">
			<path fill="#0000FF" stroke="#C1272D" stroke-miterlimit="10" d="M217.122,358.985c0.281,0.171,0.929,0.427,1.598,0.401
				c1.241-0.046,1.595-0.87,1.562-1.478c-0.049-1.023-0.966-1.431-1.898-1.396l-0.539,0.021l-0.028-0.742l0.539-0.02
				c0.703-0.026,1.578-0.432,1.545-1.298c-0.021-0.586-0.403-1.089-1.292-1.056c-0.571,0.021-1.11,0.299-1.409,0.535l-0.28-0.71
				c0.364-0.296,1.077-0.604,1.846-0.632c1.405-0.054,2.073,0.778,2.106,1.668c0.028,0.754-0.387,1.412-1.253,1.771l0.001,0.023
				c0.885,0.146,1.624,0.796,1.662,1.818c0.043,1.173-0.808,2.229-2.521,2.292c-0.801,0.029-1.514-0.202-1.874-0.428
				L217.122,358.985z"/>
		</g>
		<g enable-background="new    ">
			<path fill="#0000FF" stroke="#C1272D" stroke-miterlimit="10" d="M217.436,373.628l-0.023-0.606l0.729-0.782
				c1.756-1.846,2.544-2.822,2.515-3.925c-0.028-0.742-0.405-1.416-1.47-1.377c-0.647,0.023-1.173,0.383-1.492,0.676l-0.333-0.688
				c0.478-0.446,1.168-0.786,1.993-0.816c1.537-0.058,2.225,0.999,2.263,2.045c0.05,1.351-0.864,2.479-2.313,4.02l-0.551,0.562
				l0.001,0.021l3.206-0.119l0.031,0.821L217.436,373.628z"/>
		</g>
		<g enable-background="new    ">
			<path fill="#0000FF" stroke="#C1272D" stroke-miterlimit="10" d="M249.127,352.057l-0.031,0.001l-1.731,0.767l-0.293-0.759
				l2.177-0.956l1.166-0.043l0.277,7.464l-1.321,0.049L249.127,352.057z"/>
		</g>
		<g enable-background="new    ">
			<path fill="#0000FF" stroke="#C1272D" stroke-miterlimit="10" d="M253.957,372.21c-0.304-0.207-0.593-0.414-1.008-0.722
				c-0.88,0.653-1.881,0.955-3.032,0.998c-2.037,0.075-3.257-0.891-3.3-2.05c-0.039-1.057,0.789-1.813,1.97-2.34l-0.002-0.034
				c-0.563-0.483-0.91-1.034-0.931-1.585c-0.035-0.941,0.846-1.939,2.588-2.006c1.307-0.048,2.342,0.557,2.379,1.557
				c0.03,0.813-0.583,1.48-2.226,2.151l0.002,0.034c0.915,0.727,1.941,1.537,2.631,2.064c0.462-0.56,0.761-1.316,0.927-2.302
				l1.244-0.046c-0.234,1.229-0.65,2.21-1.402,2.915c0.576,0.416,1.137,0.832,1.777,1.304L253.957,372.21z M252.259,370.939
				c-0.642-0.481-1.843-1.381-3.046-2.324c-0.551,0.285-1.324,0.809-1.294,1.624c0.032,0.884,0.943,1.527,2.203,1.48
				C251.024,371.688,251.775,371.36,252.259,370.939z M248.895,366.34c0.021,0.55,0.379,0.963,0.845,1.359
				c1.041-0.487,1.71-0.926,1.686-1.58c-0.018-0.471-0.395-0.987-1.25-0.955C249.304,365.196,248.873,365.742,248.895,366.34z"/>
			<path fill="#0000FF" stroke="#C1272D" stroke-miterlimit="10" d="M260.975,363.326l0.427,11.48l-1.043,0.039l-0.427-11.48
				L260.975,363.326z"/>
		</g>
		<g enable-background="new    ">
			<path fill="#0000FF" stroke="#C1272D" stroke-miterlimit="10" d="M273.895,357.835l-0.024-0.679l0.874-0.875
				c2.103-2.066,3.047-3.158,3.015-4.391c-0.031-0.829-0.479-1.581-1.751-1.533c-0.774,0.028-1.402,0.431-1.784,0.76l-0.396-0.768
				c0.572-0.498,1.398-0.881,2.382-0.918c1.836-0.066,2.655,1.109,2.698,2.277c0.057,1.508-1.04,2.77-2.774,4.494l-0.659,0.629
				l0.001,0.025l3.829-0.144l0.034,0.917L273.895,357.835z"/>
		</g>
		<g enable-background="new    ">
			<path fill="#0000FF" stroke="#C1272D" stroke-miterlimit="10" d="M275.36,370.04c0.082,1.494,1.101,2.073,2.255,2.03
				c0.826-0.03,1.319-0.188,1.745-0.38l0.227,0.784c-0.4,0.19-1.087,0.418-2.098,0.455c-1.953,0.072-3.167-1.114-3.235-2.949
				c-0.067-1.834,1.007-3.32,2.855-3.391c2.072-0.076,2.688,1.649,2.729,2.769c0.009,0.227-0.012,0.401-0.021,0.516L275.36,370.04z
				 M278.714,369.123c-0.014-0.704-0.368-1.785-1.667-1.737c-1.167,0.043-1.64,1.093-1.703,1.862L278.714,369.123z M278.801,364.038
				l-1.533,1.854l-0.826,0.031l1.087-1.839L278.801,364.038z"/>
			<path fill="#0000FF" stroke="#C1272D" stroke-miterlimit="10" d="M290.112,373.142c-0.708,0.392-1.437,0.557-2.314,0.589
				c-2.151,0.079-4.03-1.359-4.12-3.771c-0.096-2.588,1.696-4.895,4.607-5.003c2.281-0.084,3.873,1.392,3.951,3.489
				c0.07,1.885-0.99,3.03-2.224,3.077c-0.524,0.02-1.022-0.302-1.011-1.069l-0.053,0.002c-0.432,0.758-1.021,1.145-1.809,1.174
				c-0.76,0.028-1.438-0.538-1.475-1.53c-0.058-1.559,1.175-3.024,2.997-3.093c0.564-0.021,1.066,0.073,1.413,0.212l-0.361,2.29
				c-0.161,0.963,0.013,1.396,0.445,1.394c0.67-0.014,1.386-0.895,1.331-2.353c-0.067-1.821-1.257-3.087-3.289-3.012
				c-2.138,0.08-3.874,1.768-3.779,4.318c0.078,2.099,1.556,3.34,3.496,3.268c0.747-0.028,1.437-0.205,1.964-0.514L290.112,373.142z
				 M289.189,367.74c-0.133-0.033-0.356-0.075-0.658-0.063c-1.154,0.043-2.047,1.119-2.001,2.338c0.021,0.555,0.323,0.944,0.9,0.924
				c0.761-0.028,1.421-0.983,1.536-1.768L289.189,367.74z"/>
		</g>
		<g enable-background="new    ">
			<path fill="#0000FF" stroke="#C1272D" stroke-miterlimit="10" d="M305.781,354.773c0.337,0.171,1.112,0.427,1.917,0.396
				c1.49-0.056,1.922-0.891,1.886-1.504c-0.052-1.032-1.149-1.437-2.271-1.394l-0.646,0.022l-0.028-0.75l0.646-0.022
				c0.845-0.032,1.898-0.446,1.866-1.321c-0.022-0.591-0.477-1.099-1.545-1.059c-0.687,0.025-1.336,0.313-1.696,0.554l-0.331-0.717
				c0.438-0.3,1.298-0.615,2.222-0.65c1.688-0.063,2.484,0.771,2.519,1.67c0.028,0.761-0.476,1.428-1.519,1.796l0.001,0.022
				c1.062,0.143,1.944,0.794,1.983,1.826c0.044,1.183-0.986,2.254-3.044,2.33c-0.963,0.036-1.816-0.192-2.247-0.416L305.781,354.773
				z"/>
		</g>
		<g enable-background="new    ">
			<path fill="#0000FF" stroke="#C1272D" stroke-miterlimit="10" d="M306.646,366.685l1.845,2.023l-0.937,0.035l-1.818-2.024
				l1.663-2.154l0.937-0.035L306.646,366.685z M308.81,366.604l1.845,2.023l-0.937,0.034l-1.818-2.023l1.663-2.155l0.937-0.034
				L308.81,366.604z"/>
			<path fill="#0000FF" stroke="#C1272D" stroke-miterlimit="10" d="M315.015,369.24l0.26-2.24l-1.081,0.04l-0.025-0.669l1.2-0.045
				l0.189-1.656l-1.135,0.042l-0.024-0.67l1.253-0.047l0.263-2.184l0.765-0.027l-0.249,2.183l1.372-0.052l0.262-2.183l0.778-0.028
				l-0.249,2.182l1.081-0.04l0.025,0.67l-1.2,0.045l-0.176,1.656l1.134-0.042l0.025,0.669l-1.253,0.046l-0.261,2.24l-0.791,0.03
				l0.26-2.241l-1.371,0.052l-0.261,2.24L315.015,369.24z M317.531,366.246l0.189-1.657l-1.372,0.052l-0.188,1.656L317.531,366.246z
				"/>
		</g>
		<g enable-background="new    ">
			<path fill="#0000FF" stroke="#C1272D" stroke-miterlimit="10" d="M342.055,355.299l-0.074-1.992l-4.545,0.169l-0.023-0.651
				l4.19-4.832l1.43-0.054l0.169,4.546l1.369-0.052l0.029,0.776l-1.37,0.051l0.074,1.992L342.055,355.299z M341.952,352.53
				l-0.091-2.441c-0.015-0.383-0.014-0.767,0.003-1.148l-0.046,0.002c-0.284,0.438-0.514,0.762-0.772,1.109l-2.3,2.575v0.022
				L341.952,352.53z"/>
		</g>
		<g enable-background="new    ">
			<path fill="#0000FF" stroke="#C1272D" stroke-miterlimit="10" d="M338.129,363.991c0.311-0.958,0.912-2.197,1.3-2.73l0.84-0.099
				c-0.291,0.675-0.654,1.85-0.79,2.666L338.129,363.991z"/>
		</g>
		<g enable-background="new    ">
			<path fill="#0000FF" stroke="#C1272D" stroke-miterlimit="10" d="M374.28,347.191l-3.732,0.139l-0.304,1.973
				c0.226-0.031,0.435-0.063,0.796-0.076c0.753-0.027,1.51,0.071,2.123,0.331c0.78,0.313,1.436,0.944,1.472,1.906
				c0.056,1.489-1.423,2.659-3.545,2.738c-1.069,0.04-1.98-0.161-2.456-0.378l0.302-0.798c0.414,0.173,1.22,0.377,2.107,0.344
				c1.249-0.046,2.295-0.72,2.257-1.739c-0.052-0.983-0.921-1.656-2.877-1.584c-0.558,0.021-0.991,0.084-1.352,0.133l0.496-3.682
				l4.681-0.174L374.28,347.191z"/>
		</g>
		<g enable-background="new    ">
			<path fill="#0000FF" stroke="#C1272D" stroke-miterlimit="10" d="M372.209,359.975c-1.057,1.189-1.798,2.744-1.719,4.867
				c0.077,2.086,0.961,3.557,2.073,4.689l-1.038,0.038c-0.985-0.938-2.064-2.4-2.148-4.688c-0.071-2.313,0.881-3.851,1.793-4.87
				L372.209,359.975z"/>
		</g>
		<g enable-background="new    ">
			<path fill="#0000FF" stroke="#C1272D" stroke-miterlimit="10" d="M399.477,346.527c-0.246-0.002-0.559,0.021-0.898,0.08
				c-1.871,0.329-2.823,1.519-2.983,2.744l0.041-0.002c0.405-0.482,1.127-0.897,2.108-0.935c1.568-0.059,2.707,0.847,2.761,2.294
				c0.051,1.354-1.007,2.648-2.848,2.717c-1.895,0.07-3.181-1.111-3.252-3.038c-0.054-1.458,0.53-2.632,1.376-3.395
				c0.714-0.63,1.681-1.042,2.795-1.197c0.352-0.06,0.651-0.081,0.869-0.09L399.477,346.527z M399.295,350.813
				c-0.04-1.062-0.786-1.671-1.891-1.63c-0.723,0.026-1.377,0.429-1.684,0.976c-0.078,0.116-0.127,0.267-0.12,0.449
				c0.072,1.218,0.774,2.093,2.028,2.046C398.665,352.614,399.334,351.87,399.295,350.813z"/>
		</g>
		<g enable-background="new    ">
			<path fill="#0000FF" stroke="#C1272D" stroke-miterlimit="10" d="M399.723,360.148c-0.36-0.17-0.913-0.332-1.648-0.306
				c-0.805,0.03-1.406,0.384-1.387,0.896c0.021,0.592,0.711,0.784,1.744,1.029c1.268,0.296,2.251,0.691,2.289,1.718
				c0.022,0.592-0.303,1.038-0.835,1.412c0.238,0.149,0.538,0.515,0.556,0.981c0.044,1.195-1.259,1.758-2.526,1.806
				c-0.832,0.03-1.629-0.101-2.158-0.399l0.303-0.66c0.335,0.181,1.013,0.43,1.817,0.399c0.872-0.032,1.515-0.388,1.492-0.99
				c-0.021-0.536-0.427-0.807-1.708-1.123c-1.419-0.347-2.402-0.732-2.438-1.711c-0.017-0.435,0.237-0.956,0.945-1.37
				c-0.279-0.173-0.512-0.553-0.539-0.938c-0.038-1.004,1.057-1.659,2.461-1.712c0.764-0.027,1.424,0.107,1.896,0.307
				L399.723,360.148z M397.671,364.068c0.703,0.179,1.255,0.33,1.574,0.488c0.334-0.218,0.499-0.544,0.485-0.896
				c-0.016-0.435-0.356-0.787-1.252-1.017c-0.552-0.149-1.255-0.316-1.698-0.518c-0.427,0.277-0.607,0.569-0.595,0.911
				C396.201,363.45,396.581,363.779,397.671,364.068z"/>
			<path fill="#0000FF" stroke="#C1272D" stroke-miterlimit="10" d="M410.803,364.345l-2.44-4.335l-0.027,0.001l-2.112,4.504
				l-0.954,0.036l2.626-5.355l0.846-0.031l3.017,5.146L410.803,364.345z"/>
		</g>
		<g enable-background="new    ">
			<path fill="#0000FF" stroke="#C1272D" stroke-miterlimit="10" d="M433.093,344.095l0.024,0.666l-4.006,6.955l-1.37,0.051
				l3.999-6.76l-0.001-0.022l-4.786,0.178l-0.03-0.838L433.093,344.095z"/>
		</g>
		<g enable-background="new    ">
			<path fill="#0000FF" stroke="#C1272D" stroke-miterlimit="10" d="M428.594,362.939c0.081,1.364,1.246,1.886,2.57,1.837
				c0.947-0.035,1.515-0.185,2.006-0.363l0.253,0.717c-0.461,0.178-1.252,0.392-2.411,0.435c-2.242,0.083-3.623-0.992-3.686-2.67
				c-0.063-1.676,1.183-3.044,3.305-3.122c2.378-0.089,3.069,1.482,3.107,2.507c0.008,0.206-0.018,0.367-0.027,0.471
				L428.594,362.939z M432.45,362.072c-0.01-0.645-0.408-1.629-1.897-1.574c-1.34,0.05-1.892,1.014-1.971,1.719L432.45,362.072z
				 M430.05,357.516l1.386,1.595l-0.947,0.034l-1.897-1.573L430.05,357.516z"/>
		</g>
		<g enable-background="new    ">
			<path fill="#0000FF" stroke="#C1272D" stroke-miterlimit="10" d="M454.753,349.204c-0.035-0.952,0.678-1.652,1.866-2.093
				l-0.017-0.035c-1.099-0.354-1.59-0.987-1.612-1.639c-0.045-1.197,1.233-2.06,2.95-2.123c1.896-0.07,2.878,0.813,2.912,1.754
				c0.024,0.64-0.355,1.34-1.545,1.825l0.002,0.034c1.232,0.327,2.011,0.961,2.045,1.879c0.049,1.313-1.379,2.251-3.244,2.32
				C456.063,351.204,454.794,350.31,454.753,349.204z M460.021,348.962c-0.034-0.918-0.88-1.328-2.215-1.569
				c-1.134,0.299-1.729,0.901-1.703,1.622c-0.017,0.77,0.762,1.414,2.011,1.368C459.301,350.339,460.048,349.741,460.021,348.962z
				 M456.236,345.321c0.027,0.756,0.78,1.135,1.918,1.325c0.835-0.253,1.465-0.74,1.438-1.428c-0.021-0.604-0.513-1.214-1.701-1.17
				C456.793,344.091,456.212,344.672,456.236,345.321z"/>
		</g>
		<g enable-background="new    ">
			<path fill="#0000FF" stroke="#C1272D" stroke-miterlimit="10" d="M455.921,362.784l-0.418-5.569l1.445-0.054l-0.004,5.585
				L455.921,362.784z M455.606,364.46c-0.017-0.419,0.35-0.734,0.86-0.754c0.541-0.021,0.899,0.269,0.915,0.688
				c0.016,0.406-0.32,0.732-0.861,0.753C455.994,365.166,455.621,364.866,455.606,364.46z"/>
		</g>
		<g enable-background="new    ">
			<path fill="#0000FF" stroke="#C1272D" stroke-miterlimit="10" d="M484.654,348.939c0.313,0.011,0.672-0.024,1.163-0.078
				c0.833-0.111,1.609-0.383,2.201-0.808c0.688-0.474,1.173-1.146,1.336-2.038l-0.049,0.002c-0.571,0.526-1.413,0.856-2.479,0.896
				c-1.918,0.071-3.186-0.893-3.232-2.167c-0.053-1.412,1.36-2.707,3.541-2.788c2.18-0.081,3.57,1.109,3.642,3.015
				c0.062,1.643-0.684,2.819-1.706,3.57c-0.799,0.594-1.916,0.979-3.062,1.114c-0.521,0.077-0.98,0.104-1.326,0.105L484.654,348.939
				z M485.021,344.625c0.033,0.93,0.86,1.556,2.106,1.509c0.967-0.036,1.709-0.396,2.069-0.858c0.079-0.096,0.124-0.213,0.117-0.373
				c-0.048-1.274-0.756-2.226-2.264-2.169C485.82,342.778,484.979,343.569,485.021,344.625z"/>
		</g>
		<g enable-background="new    ">
			<path fill="#0000FF" stroke="#C1272D" stroke-miterlimit="10" d="M490.479,363.032c-0.34,0.14-1.088,0.351-2.069,0.397
				l-0.394,0.476c0.594,0.059,1.161,0.325,1.18,0.796c0.024,0.688-0.784,0.982-1.67,1.017c-0.376,0.015-0.84-0.038-1.154-0.152
				l0.227-0.526c0.25,0.095,0.579,0.128,0.907,0.116c0.377-0.016,0.702-0.106,0.691-0.382c-0.028-0.31-0.524-0.406-1.296-0.436
				l0.654-0.911c-2.021-0.096-3.356-1.14-3.415-2.678c-0.063-1.711,1.563-3.012,4.152-3.108c0.853-0.03,1.611,0.09,2.01,0.212
				l-0.299,0.795c-0.349-0.125-0.895-0.232-1.682-0.203c-1.819,0.066-2.769,1.046-2.726,2.205c0.049,1.286,1.258,2.034,2.831,1.977
				c0.819-0.03,1.371-0.2,1.761-0.341L490.479,363.032z"/>
			<path fill="#0000FF" stroke="#C1272D" stroke-miterlimit="10" d="M494.742,359.481c1.164-0.045,1.312-0.498,1.296-0.898
				c-0.012-0.322-0.089-0.641-0.167-0.961c-0.077-0.317-0.154-0.626-0.166-0.947c-0.04-1.057,0.928-1.54,2.32-1.592l0.345-0.013
				l0.023,0.632l-0.296,0.011c-0.968,0.036-1.28,0.414-1.259,1.035c0.01,0.264,0.069,0.537,0.146,0.811
				c0.077,0.284,0.137,0.559,0.147,0.868c0.043,0.734-0.402,1.119-1.135,1.284l0.001,0.022c0.742,0.1,1.216,0.473,1.227,1.208
				c0.013,0.31-0.025,0.6-0.083,0.877c-0.054,0.289-0.094,0.556-0.083,0.831c0.023,0.643,0.414,0.984,1.332,0.95l0.296-0.011
				l0.022,0.632l-0.345,0.014c-1.359,0.051-2.393-0.326-2.436-1.485c-0.012-0.312,0.042-0.634,0.097-0.947
				c0.054-0.312,0.107-0.624,0.097-0.935c-0.013-0.356-0.195-0.844-1.358-0.8L494.742,359.481z"/>
		</g>
		<g enable-background="new    ">
			<path fill="#0000FF" stroke="#C1272D" stroke-miterlimit="10" d="M520.59,344.925c0.093,2.486-1.037,3.903-3.112,3.98
				c-1.829,0.067-3.118-1.226-3.237-3.645c-0.091-2.453,1.214-3.854,3.115-3.925C519.329,341.264,520.504,342.595,520.59,344.925z
				 M515.508,345.227c0.071,1.901,0.86,2.953,2.013,2.91c1.298-0.048,1.873-1.253,1.805-3.12c-0.067-1.801-0.702-2.96-2.014-2.91
				C516.201,342.146,515.435,343.234,515.508,345.227z"/>
		</g>
		<g enable-background="new    ">
			<path fill="#0000FF" stroke="#C1272D" stroke-miterlimit="10" d="M519.271,362.229l-0.125-0.683l-0.044,0.002
				c-0.372,0.442-1.107,0.853-2.103,0.89c-1.412,0.053-2.161-0.697-2.19-1.485c-0.05-1.316,1.423-2.092,4.117-2.181l-0.004-0.112
				c-0.017-0.45-0.205-1.254-1.632-1.201c-0.648,0.024-1.319,0.207-1.801,0.473l-0.313-0.643c0.565-0.314,1.396-0.537,2.273-0.569
				c2.132-0.079,2.692,1.039,2.733,2.13l0.075,2.036c0.019,0.475,0.063,0.935,0.164,1.303L519.271,362.229z M516.834,354.511
				l1.313,1.563l-0.895,0.033l-1.817-1.546L516.834,354.511z M518.979,359.457c-1.385,0.028-2.946,0.278-2.907,1.337
				c0.022,0.641,0.583,0.924,1.229,0.9c0.908-0.034,1.468-0.507,1.653-0.976c0.039-0.102,0.063-0.216,0.06-0.316L518.979,359.457z"
				/>
			<path fill="#0000FF" stroke="#C1272D" stroke-miterlimit="10" d="M527.938,358.956c-1.023,0.038-1.149,0.526-1.138,0.875
				c0.013,0.304,0.08,0.605,0.149,0.907c0.068,0.302,0.139,0.613,0.148,0.919c0.042,1.136-0.851,1.576-2.031,1.62l-0.303,0.011
				l-0.022-0.62l0.245-0.009c0.807-0.041,1.141-0.393,1.116-1.021c-0.011-0.271-0.077-0.526-0.132-0.807
				c-0.066-0.27-0.136-0.547-0.146-0.853c-0.027-0.721,0.361-1.116,0.991-1.264l-0.001-0.022c-0.64-0.111-1.057-0.457-1.082-1.178
				c-0.013-0.304,0.036-0.575,0.083-0.858c0.033-0.272,0.081-0.544,0.07-0.804c-0.021-0.607-0.338-0.944-1.174-0.927l-0.26,0.01
				l-0.022-0.617l0.288-0.012c1.226-0.045,2.119,0.361,2.158,1.396c0.012,0.314-0.035,0.62-0.081,0.938s-0.092,0.636-0.08,0.949
				c0.016,0.395,0.175,0.828,1.198,0.79L527.938,358.956z"/>
		</g>
		<g enable-background="new    ">
			<path fill="#0000FF" stroke="#C1272D" stroke-miterlimit="10" d="M550.927,340.61c0.034,0.928-0.906,1.57-1.93,1.608
				c-1.156,0.043-1.968-0.604-1.997-1.404c-0.048-0.883,0.817-1.579,1.914-1.619C550.13,339.149,550.897,339.831,550.927,340.61z
				 M547.802,340.784c0.021,0.525,0.538,0.92,1.189,0.896c0.668-0.023,1.155-0.466,1.135-1.026c-0.016-0.425-0.362-0.95-1.207-0.919
				C548.148,339.763,547.783,340.292,547.802,340.784z"/>
		</g>
		<g enable-background="new    ">
			<path fill="#0000FF" stroke="#C1272D" stroke-miterlimit="10" d="M547.664,362.238c1.01-1.173,1.769-2.691,1.69-4.754
				c-0.074-2.051-0.93-3.485-2.037-4.58l1.007-0.038c0.981,0.905,2.03,2.335,2.114,4.59c0.082,2.244-0.855,3.734-1.769,4.744
				L547.664,362.238z"/>
		</g>
		<g enable-background="new    ">
			<path fill="#0000FF" stroke="#C1272D" stroke-miterlimit="10" d="M577.919,342.739l0.025,0.684l-2.994,0.111l-0.025-0.685
				L577.919,342.739z"/>
		</g>
		<g enable-background="new    ">
			<path fill="#0000FF" stroke="#C1272D" stroke-miterlimit="10" d="M581.239,359.249l0.02,0.526L575.197,360l-0.021-0.526
				L581.239,359.249z"/>
		</g>
		<line fill="none" stroke="#C1272D" stroke-miterlimit="10" x1="428.449" y1="369.08" x2="430.227" y2="369.014"/>
		<path fill="#0000FF" stroke="#C1272D" stroke-miterlimit="10" d="M647.779,360.93"/>
	</g>
</g>
<g id="Calque_5">
	<g>
		<path d="M41.667,351.986V209.141h43.318v95.23h43.319v47.615H41.667z M117.475,340.083v-23.808H74.156v-95.231H52.497v119.039
			H117.475z"/>
		<path d="M143.449,340.083V221.044h64.978v23.808h-43.319v23.808h32.489v23.808h-32.489v23.809h43.319v23.808L143.449,340.083
			L143.449,340.083z"/>
		<path d="M249.545,351.986V209.141h75.808v11.904h10.83v71.423h-10.83v11.903h-32.489v47.615H249.545L249.545,351.986z
			 M282.034,340.083v-47.615h32.489v-11.903h10.83v-47.616h-10.83v-11.904h-54.148v119.039H282.034z M282.034,268.66v-23.808h21.66
			v23.808H282.034z"/>
		<path d="M351.327,340.083V221.044h21.659v119.039H351.327z"/>
		<path d="M388.131,340.083V232.948h10.83v-11.904h43.319v11.904h10.83v107.135h-21.66v-47.615h-21.66v47.615H388.131z
			 M431.449,268.66v-23.808H409.79v23.808H431.449z"/>
		<path d="M468.253,340.083V221.044h10.83v11.904h10.829v11.904h10.83v11.904h10.83v-35.711h21.657v119.039h-21.657v-47.615h-10.83
			v-11.904h-10.83v59.52L468.253,340.083L468.253,340.083z"/>
		<path d="M559.206,340.083V328.18h-10.83v-95.23h10.83v-11.904h43.318v11.904h10.828v95.23h-10.828v11.903H559.206z
			 M591.694,316.275v-71.423h-21.659v71.423H591.694z"/>
		<path d="M654.473,351.986V209.141h75.809v11.904h10.829v71.423h-10.83v11.903h-32.489v47.615H654.473L654.473,351.986z
			 M686.962,340.083v-47.615h32.488v-11.903h10.83v-47.616h-10.83v-11.904h-54.147v119.039H686.962z M686.962,268.66v-23.808h21.659
			v23.808H686.962z"/>
		<path d="M756.254,351.986V209.141h75.808v11.904h10.829v119.039h-10.829v11.903L756.254,351.986L756.254,351.986z
			 M821.231,340.083V328.18h10.83v-95.23h-10.83v-11.904h-54.147v119.039L821.231,340.083L821.231,340.083z M788.743,316.275
			v-71.423h21.659v71.423H788.743z"/>
	</g>
</g>
<g id="Calque_2">
	<g>
		<path fill="#FF0000" d="M40.667,345.93V203.083h43.318v95.229h43.319v47.616L40.667,345.93L40.667,345.93z M116.475,334.025
			v-23.809H73.156v-95.231H51.497v119.04H116.475L116.475,334.025z"/>
		<path fill="#F15A24" d="M142.449,334.025V214.987h64.978v23.808h-43.319v23.808h32.489v23.808h-32.489v23.808h43.319v23.809
			h-64.978V334.025z"/>
		<path fill="#00FF00" d="M248.545,345.93V203.083h75.808v11.904h10.83v71.423h-10.83v11.902h-32.489v47.616L248.545,345.93
			L248.545,345.93z M281.034,334.025V286.41h32.489v-11.904h10.83V226.89h-10.83v-11.904h-54.148v119.04H281.034L281.034,334.025z
			 M281.034,262.603v-23.808h21.66v23.808H281.034z"/>
		<path fill="#29ABE2" d="M350.327,334.025V214.987h21.659v119.04L350.327,334.025L350.327,334.025z"/>
		<path fill="#0071BC" d="M387.131,334.025V226.891h10.83v-11.904h43.319v11.904h10.83v107.135h-21.66V286.41h-21.66v47.615H387.131
			z M430.449,262.603v-23.808H408.79v23.808H430.449z"/>
		<path fill="#662D91" d="M467.253,334.025V214.987h10.83v11.904h10.829v11.904h10.83v11.904h10.83v-35.711h21.657v119.039h-21.657
			V286.41h-10.83v-11.904h-10.83v59.52H467.253L467.253,334.025z"/>
		<path fill="#C1272D" d="M558.206,334.025v-11.904h-10.83v-95.23h10.83v-11.904h43.318v11.904h10.828v95.23h-10.828v11.904H558.206
			z M590.694,310.218v-71.423h-21.659v71.423H590.694z"/>
		<path fill="#FFFF00" d="M653.473,345.93V203.083h75.809v11.904h10.829v71.423h-10.83v11.902h-32.489v47.616L653.473,345.93
			L653.473,345.93z M685.962,334.025V286.41h32.488v-11.904h10.83V226.89h-10.83v-11.904h-54.147v119.04H685.962L685.962,334.025z
			 M685.962,262.603v-23.808h21.659v23.808H685.962z"/>
		<path fill="#662D91" d="M755.254,345.93V203.083h75.808v11.904h10.829v119.04h-10.829v11.903H755.254z M820.231,334.025v-11.904
			h10.83v-95.23h-10.83v-11.904h-54.147v119.04L820.231,334.025L820.231,334.025z M787.743,310.218v-71.423h21.659v71.423H787.743z"
			/>
	</g>
	<g>
		<path d="M39.56,360.736c-0.384,0.19-1.151,0.384-2.135,0.384c-2.279,0-3.994-1.439-3.994-4.09c0-2.53,1.715-4.246,4.222-4.246
			c1.007,0,1.643,0.216,1.919,0.359l-0.252,0.853c-0.396-0.192-0.959-0.336-1.631-0.336c-1.895,0-3.154,1.211-3.154,3.334
			c0,1.979,1.139,3.25,3.106,3.25c0.635,0,1.283-0.132,1.703-0.336L39.56,360.736z"/>
		<path d="M40.799,357.006c0-0.684-0.012-1.271-0.048-1.811h0.923l0.036,1.14h0.048c0.264-0.78,0.899-1.271,1.607-1.271
			c0.12,0,0.204,0.012,0.3,0.035v0.995c-0.108-0.023-0.216-0.036-0.359-0.036c-0.744,0-1.271,0.563-1.416,1.355
			c-0.024,0.144-0.048,0.312-0.048,0.491V361h-1.043V357.006z"/>
		<path d="M45.191,358.289c0.024,1.428,0.935,2.016,1.991,2.016c0.755,0,1.211-0.132,1.607-0.3l0.18,0.755
			c-0.372,0.168-1.007,0.36-1.931,0.36c-1.787,0-2.854-1.176-2.854-2.927s1.032-3.131,2.723-3.131c1.895,0,2.399,1.668,2.399,2.734
			c0,0.216-0.024,0.384-0.036,0.491L45.191,358.289L45.191,358.289z M48.285,357.534c0.012-0.672-0.276-1.716-1.463-1.716
			c-1.067,0-1.535,0.983-1.619,1.716H48.285z M48.537,352.688l-1.463,1.716h-0.755l1.055-1.716H48.537z"/>
		<path d="M51.203,358.289c0.024,1.428,0.935,2.016,1.991,2.016c0.755,0,1.211-0.132,1.607-0.3l0.18,0.755
			c-0.372,0.168-1.007,0.36-1.931,0.36c-1.787,0-2.854-1.176-2.854-2.927s1.032-3.131,2.723-3.131c1.895,0,2.399,1.668,2.399,2.734
			c0,0.216-0.024,0.384-0.036,0.491L51.203,358.289L51.203,358.289z M54.297,357.534c0.012-0.672-0.276-1.716-1.463-1.716
			c-1.067,0-1.535,0.983-1.619,1.716H54.297z M54.549,352.688l-1.463,1.716H52.33l1.055-1.716H54.549z"/>
		<path d="M59.758,358.289c0.024,1.428,0.935,2.016,1.991,2.016c0.755,0,1.211-0.132,1.607-0.3l0.18,0.755
			c-0.372,0.168-1.007,0.36-1.931,0.36c-1.787,0-2.854-1.176-2.854-2.927s1.032-3.131,2.723-3.131c1.895,0,2.399,1.668,2.399,2.734
			c0,0.216-0.024,0.384-0.036,0.491L59.758,358.289L59.758,358.289z M62.853,357.534c0.012-0.672-0.276-1.716-1.463-1.716
			c-1.067,0-1.535,0.983-1.619,1.716H62.853z"/>
		<path d="M65.183,356.767c0-0.6-0.012-1.092-0.048-1.57h0.936l0.06,0.959h0.024c0.288-0.553,0.959-1.091,1.919-1.091
			c0.803,0,2.051,0.479,2.051,2.471V361h-1.056v-3.346c0-0.937-0.348-1.717-1.343-1.717c-0.695,0-1.235,0.492-1.415,1.08
			c-0.048,0.133-0.072,0.313-0.072,0.491V361h-1.056V356.767z"/>
		<path d="M74.05,361v-0.647l0.828-0.804c1.991-1.895,2.891-2.901,2.902-4.078c0-0.791-0.384-1.521-1.547-1.521
			c-0.708,0-1.295,0.358-1.655,0.659l-0.336-0.743c0.54-0.456,1.308-0.792,2.207-0.792c1.679,0,2.387,1.15,2.387,2.267
			c0,1.439-1.043,2.604-2.687,4.187l-0.624,0.575v0.023h3.502V361H74.05z"/>
		<path d="M85.387,357.019c0,2.65-0.983,4.113-2.71,4.113c-1.523,0-2.555-1.427-2.579-4.006c0-2.614,1.127-4.054,2.71-4.054
			C84.452,353.072,85.387,354.535,85.387,357.019z M81.154,357.138c0,2.027,0.624,3.18,1.583,3.18c1.08,0,1.595-1.261,1.595-3.25
			c0-1.919-0.492-3.18-1.583-3.18C81.825,353.888,81.154,355.016,81.154,357.138z"/>
		<path d="M88.653,354.188h-0.024l-1.355,0.731l-0.204-0.803l1.703-0.912h0.9V361h-1.02V354.188z"/>
		<path d="M97.58,353.204v0.696l-3.394,7.1h-1.092l3.382-6.896v-0.023h-3.814v-0.876L97.58,353.204L97.58,353.204z"/>
	</g>
	<g>
		<path d="M748.577,351.681c0.504-0.084,1.164-0.155,2.003-0.155c1.032,0,1.787,0.239,2.268,0.672
			c0.443,0.384,0.707,0.972,0.707,1.689c0,0.732-0.216,1.309-0.624,1.729c-0.551,0.588-1.451,0.888-2.47,0.888
			c-0.313,0-0.601-0.013-0.84-0.072v3.238h-1.044V351.681L748.577,351.681z M749.621,355.578c0.228,0.061,0.516,0.084,0.863,0.084
			c1.26,0,2.026-0.611,2.026-1.728c0-1.066-0.756-1.584-1.907-1.584c-0.456,0-0.804,0.036-0.982,0.084V355.578z"/>
		<path d="M757.828,359.668l-0.084-0.73h-0.036c-0.323,0.455-0.947,0.862-1.775,0.862c-1.175,0-1.773-0.827-1.773-1.667
			c0-1.402,1.247-2.171,3.49-2.159v-0.118c0-0.48-0.133-1.345-1.319-1.345c-0.54,0-1.104,0.168-1.512,0.433l-0.239-0.695
			c0.479-0.313,1.175-0.516,1.906-0.516c1.774,0,2.207,1.211,2.207,2.374v2.171c0,0.504,0.023,0.996,0.096,1.392L757.828,359.668
			L757.828,359.668z M757.672,356.706c-1.151-0.024-2.458,0.18-2.458,1.307c0,0.685,0.455,1.009,0.995,1.009
			c0.756,0,1.235-0.479,1.403-0.973c0.036-0.106,0.06-0.228,0.06-0.336V356.706z"/>
		<path d="M760.398,355.674c0-0.684-0.014-1.271-0.05-1.811h0.925l0.035,1.14h0.049c0.264-0.78,0.898-1.271,1.606-1.271
			c0.12,0,0.203,0.012,0.3,0.035v0.995c-0.107-0.023-0.216-0.036-0.359-0.036c-0.743,0-1.271,0.563-1.415,1.355
			c-0.023,0.144-0.048,0.313-0.048,0.491v3.095h-1.043V355.674z"/>
		<path d="M766.901,351.584h1.044v3.898h0.036c0.216-0.313,0.432-0.601,0.636-0.863l2.471-3.035h1.295l-2.927,3.431l3.154,4.653
			h-1.235l-2.662-3.97l-0.768,0.888v3.082h-1.044V351.584z"/>
		<path d="M774.664,352.232c0.012,0.358-0.252,0.646-0.672,0.646c-0.371,0-0.636-0.288-0.636-0.646c0-0.372,0.275-0.66,0.659-0.66
			C774.412,351.572,774.664,351.86,774.664,352.232z M773.489,359.668v-5.805h1.055v5.805H773.489z"/>
		<path d="M781.311,351.152v7.017c0,0.516,0.013,1.104,0.049,1.499h-0.947l-0.048-1.008h-0.024c-0.323,0.647-1.031,1.14-1.979,1.14
			c-1.403,0-2.482-1.188-2.482-2.95c-0.013-1.931,1.188-3.117,2.604-3.117c0.888,0,1.486,0.42,1.751,0.888h0.022v-3.467
			L781.311,351.152L781.311,351.152z M780.255,356.226c0-0.132-0.012-0.312-0.048-0.442c-0.155-0.672-0.731-1.225-1.523-1.225
			c-1.091,0-1.737,0.96-1.737,2.243c0,1.175,0.575,2.146,1.715,2.146c0.708,0,1.354-0.468,1.547-1.259
			c0.036-0.146,0.048-0.288,0.048-0.456L780.255,356.226L780.255,356.226z"/>
		<path d="M783.065,355.758c0-0.743-0.024-1.343-0.05-1.895h0.948l0.048,0.995h0.023c0.432-0.707,1.115-1.127,2.063-1.127
			c1.403,0,2.458,1.188,2.458,2.949c0,2.087-1.271,3.118-2.639,3.118c-0.768,0-1.438-0.336-1.786-0.911h-0.023v3.154h-1.044v-6.284
			H783.065z M784.108,357.306c0,0.155,0.023,0.301,0.048,0.433c0.191,0.73,0.828,1.234,1.583,1.234c1.114,0,1.764-0.912,1.764-2.242
			c0-1.163-0.612-2.159-1.729-2.159c-0.72,0-1.392,0.517-1.595,1.308c-0.036,0.132-0.071,0.288-0.071,0.432V357.306L784.108,357.306
			z"/>
		<path d="M793.107,359.668l-0.084-0.73h-0.036c-0.323,0.455-0.947,0.862-1.775,0.862c-1.175,0-1.773-0.827-1.773-1.667
			c0-1.402,1.246-2.171,3.489-2.159v-0.118c0-0.48-0.132-1.345-1.318-1.345c-0.54,0-1.104,0.168-1.513,0.433l-0.238-0.695
			c0.479-0.313,1.175-0.516,1.905-0.516c1.775,0,2.207,1.211,2.207,2.374v2.171c0,0.504,0.024,0.996,0.097,1.392L793.107,359.668
			L793.107,359.668z M792.951,356.706c-1.151-0.024-2.458,0.18-2.458,1.307c0,0.685,0.455,1.009,0.995,1.009
			c0.756,0,1.234-0.479,1.402-0.973c0.036-0.106,0.061-0.228,0.061-0.336V356.706z"/>
		<path d="M800.69,351.152v7.017c0,0.516,0.012,1.104,0.048,1.499h-0.947l-0.048-1.008h-0.024c-0.323,0.647-1.03,1.14-1.979,1.14
			c-1.403,0-2.482-1.188-2.482-2.95c-0.013-1.931,1.188-3.117,2.604-3.117c0.888,0,1.486,0.42,1.751,0.888h0.022v-3.467
			L800.69,351.152L800.69,351.152z M799.635,356.226c0-0.132-0.012-0.312-0.048-0.442c-0.155-0.672-0.73-1.225-1.521-1.225
			c-1.093,0-1.739,0.96-1.739,2.243c0,1.175,0.575,2.146,1.715,2.146c0.708,0,1.355-0.468,1.547-1.259
			c0.036-0.146,0.048-0.288,0.048-0.456L799.635,356.226L799.635,356.226z"/>
		<path d="M807.458,351.152v7.017c0,0.516,0.012,1.104,0.048,1.499h-0.947l-0.048-1.008h-0.023c-0.323,0.647-1.031,1.14-1.979,1.14
			c-1.403,0-2.481-1.188-2.481-2.95c-0.014-1.931,1.188-3.117,2.603-3.117c0.888,0,1.487,0.42,1.751,0.888h0.023v-3.467
			L807.458,351.152L807.458,351.152z M806.402,356.226c0-0.132-0.013-0.312-0.048-0.442c-0.155-0.672-0.731-1.225-1.522-1.225
			c-1.092,0-1.739,0.96-1.739,2.243c0,1.175,0.575,2.146,1.715,2.146c0.708,0,1.355-0.468,1.548-1.259
			c0.035-0.146,0.048-0.288,0.048-0.456L806.402,356.226L806.402,356.226z"/>
		<path d="M809.213,351.152h1.055v8.516h-1.055V351.152z"/>
		<path d="M812.632,356.957c0.024,1.428,0.937,2.016,1.991,2.016c0.756,0,1.211-0.132,1.607-0.3l0.18,0.755
			c-0.372,0.168-1.008,0.36-1.931,0.36c-1.787,0-2.854-1.176-2.854-2.927s1.031-3.13,2.723-3.13c1.896,0,2.398,1.667,2.398,2.733
			c0,0.216-0.024,0.384-0.036,0.491L812.632,356.957L812.632,356.957z M815.727,356.202c0.013-0.672-0.275-1.716-1.463-1.716
			c-1.066,0-1.534,0.983-1.619,1.716H815.727z"/>
		<path d="M818.644,356.957c0.024,1.428,0.937,2.016,1.991,2.016c0.756,0,1.211-0.132,1.607-0.3l0.18,0.755
			c-0.372,0.168-1.008,0.36-1.931,0.36c-1.787,0-2.854-1.176-2.854-2.927s1.031-3.13,2.724-3.13c1.895,0,2.397,1.667,2.397,2.733
			c0,0.216-0.023,0.384-0.036,0.491L818.644,356.957L818.644,356.957z M821.738,356.202c0.012-0.672-0.276-1.716-1.463-1.716
			c-1.067,0-1.535,0.983-1.619,1.716H821.738z"/>
		<path d="M825.34,352.196v1.667h1.513v0.804h-1.513v3.13c0,0.72,0.204,1.128,0.792,1.128c0.275,0,0.479-0.036,0.611-0.072
			l0.048,0.791c-0.203,0.084-0.527,0.146-0.936,0.146c-0.491,0-0.888-0.156-1.14-0.444c-0.3-0.312-0.408-0.827-0.408-1.511v-3.166
			h-0.898v-0.804h0.898v-1.393L825.34,352.196z"/>
		<path d="M832.106,359.452c-0.276,0.144-0.889,0.336-1.668,0.336c-1.752,0-2.891-1.188-2.891-2.963
			c0-1.787,1.223-3.082,3.118-3.082c0.623,0,1.175,0.156,1.463,0.3l-0.239,0.815c-0.252-0.145-0.647-0.275-1.224-0.275
			c-1.331,0-2.051,0.983-2.051,2.194c0,1.344,0.862,2.171,2.015,2.171c0.6,0,0.995-0.156,1.295-0.288L832.106,359.452z"/>
		<path d="M834.521,352.232c0.012,0.358-0.253,0.646-0.673,0.646c-0.37,0-0.636-0.288-0.636-0.646c0-0.372,0.276-0.66,0.66-0.66
			C834.268,351.572,834.521,351.86,834.521,352.232z M833.345,359.668v-5.805h1.056v5.805H833.345z"/>
		<path d="M836.74,356.957c0.023,1.428,0.936,2.016,1.991,2.016c0.756,0,1.211-0.132,1.606-0.3l0.18,0.755
			c-0.372,0.168-1.008,0.36-1.931,0.36c-1.787,0-2.854-1.176-2.854-2.927s1.03-3.13,2.723-3.13c1.895,0,2.398,1.667,2.398,2.733
			c0,0.216-0.024,0.384-0.036,0.491L836.74,356.957L836.74,356.957z M839.835,356.202c0.012-0.672-0.276-1.716-1.463-1.716
			c-1.067,0-1.535,0.983-1.619,1.716H839.835z"/>
		<path d="M850.897,359.309c-0.469,0.168-1.393,0.443-2.483,0.443c-1.223,0-2.23-0.312-3.021-1.067
			c-0.695-0.672-1.128-1.751-1.128-3.011c0.013-2.41,1.667-4.174,4.378-4.174c0.937,0,1.667,0.204,2.016,0.372l-0.252,0.852
			c-0.433-0.19-0.973-0.348-1.787-0.348c-1.967,0-3.25,1.224-3.25,3.25c0,2.051,1.235,3.263,3.118,3.263
			c0.684,0,1.15-0.097,1.392-0.216v-2.411h-1.644v-0.84h2.663L850.897,359.309L850.897,359.309z"/>
		<path d="M852.461,351.152h1.055v8.516h-1.055V351.152z"/>
		<path d="M856.467,352.232c0.013,0.358-0.252,0.646-0.672,0.646c-0.371,0-0.636-0.288-0.636-0.646c0-0.372,0.275-0.66,0.66-0.66
			C856.215,351.572,856.467,351.86,856.467,352.232z M855.292,359.668v-5.805h1.055v5.805H855.292z"/>
		<path d="M858.101,355.435c0-0.6-0.013-1.092-0.049-1.57h0.937l0.061,0.959h0.023c0.288-0.552,0.96-1.091,1.919-1.091
			c0.804,0,2.051,0.479,2.051,2.471v3.466h-1.055v-3.346c0-0.937-0.349-1.716-1.345-1.716c-0.694,0-1.234,0.491-1.415,1.079
			c-0.048,0.133-0.071,0.313-0.071,0.491v3.49h-1.056V355.435z"/>
	</g>
</g>
</svg>
